<svg id="Grupo_16078" data-name="Grupo 16078" xmlns="http://www.w3.org/2000/svg" xmlns:xlink="http://www.w3.org/1999/xlink" width="312.296" height="322.067" viewBox="0 0 312.296 322.067">
  <defs>
    <clipPath id="clip-path">
      <rect id="Rectángulo_3932" data-name="Rectángulo 3932" width="312.296" height="322.067" fill="none"/>
    </clipPath>
    <clipPath id="clip-path-3">
      <rect id="Rectángulo_3894" data-name="Rectángulo 3894" width="118.113" height="118.114" transform="translate(39.549 16.331)" fill="none"/>
    </clipPath>
    <clipPath id="clip-path-4">
      <path id="Trazado_39820" data-name="Trazado 39820" d="M157.662,75.387A59.057,59.057,0,1,1,98.605,16.331a59.058,59.058,0,0,1,59.057,59.056" fill="none"/>
    </clipPath>
    <clipPath id="clip-path-5">
      <rect id="Rectángulo_3884" data-name="Rectángulo 3884" width="11.618" height="6.911" transform="translate(94.021 103.026)" fill="none"/>
    </clipPath>
    <clipPath id="clip-path-6">
      <rect id="Rectángulo_3885" data-name="Rectángulo 3885" width="2.818" height="5.52" transform="translate(124.243 77.965)" fill="none"/>
    </clipPath>
    <clipPath id="clip-path-7">
      <rect id="Rectángulo_3886" data-name="Rectángulo 3886" width="1.734" height="2.005" transform="translate(123.2 80.109)" fill="none"/>
    </clipPath>
    <clipPath id="clip-path-8">
      <rect id="Rectángulo_3887" data-name="Rectángulo 3887" width="2.813" height="5.52" transform="translate(73.334 77.965)" fill="none"/>
    </clipPath>
    <clipPath id="clip-path-9">
      <rect id="Rectángulo_3888" data-name="Rectángulo 3888" width="1.734" height="2.005" transform="translate(75.457 80.109)" fill="none"/>
    </clipPath>
    <clipPath id="clip-path-10">
      <rect id="Rectángulo_3889" data-name="Rectángulo 3889" width="5.72" height="1.43" transform="translate(96.856 117.194)" fill="none"/>
    </clipPath>
    <clipPath id="clip-path-11">
      <rect id="Rectángulo_3890" data-name="Rectángulo 3890" width="8.896" height="6.203" transform="translate(87.736 110.606)" fill="none"/>
    </clipPath>
    <clipPath id="clip-path-12">
      <rect id="Rectángulo_3891" data-name="Rectángulo 3891" width="9.752" height="6.218" transform="translate(103.015 110.717)" fill="none"/>
    </clipPath>
    <clipPath id="clip-path-13">
      <rect id="Rectángulo_3892" data-name="Rectángulo 3892" width="9.48" height="6.353" transform="translate(87.736 107.604)" fill="none"/>
    </clipPath>
    <clipPath id="clip-path-14">
      <rect id="Rectángulo_3893" data-name="Rectángulo 3893" width="9.478" height="6.353" transform="translate(103.411 107.604)" fill="none"/>
    </clipPath>
    <clipPath id="clip-path-15">
      <rect id="Rectángulo_3901" data-name="Rectángulo 3901" width="118.112" height="118.114" transform="translate(194.184 123.886)" fill="none"/>
    </clipPath>
    <clipPath id="clip-path-16">
      <path id="Trazado_39838" data-name="Trazado 39838" d="M312.3,182.943a59.056,59.056,0,1,1-59.056-59.056A59.056,59.056,0,0,1,312.3,182.943" fill="none"/>
    </clipPath>
    <clipPath id="clip-path-17">
      <rect id="Rectángulo_3896" data-name="Rectángulo 3896" width="11.618" height="5.967" transform="translate(247.432 210.905)" fill="none"/>
    </clipPath>
    <clipPath id="clip-path-18">
      <rect id="Rectángulo_3897" data-name="Rectángulo 3897" width="2.816" height="5.52" transform="translate(277.653 185.842)" fill="none"/>
    </clipPath>
    <clipPath id="clip-path-19">
      <rect id="Rectángulo_3898" data-name="Rectángulo 3898" width="1.737" height="2.003" transform="translate(276.609 187.987)" fill="none"/>
    </clipPath>
    <clipPath id="clip-path-20">
      <rect id="Rectángulo_3899" data-name="Rectángulo 3899" width="2.815" height="5.52" transform="translate(226.743 185.842)" fill="none"/>
    </clipPath>
    <clipPath id="clip-path-21">
      <rect id="Rectángulo_3900" data-name="Rectángulo 3900" width="1.734" height="2.003" transform="translate(228.868 187.987)" fill="none"/>
    </clipPath>
    <clipPath id="clip-path-22">
      <rect id="Rectángulo_3909" data-name="Rectángulo 3909" width="118.113" height="118.115" transform="translate(93.541 100.845)" fill="none"/>
    </clipPath>
    <clipPath id="clip-path-23">
      <path id="Trazado_39856" data-name="Trazado 39856" d="M211.655,159.9A59.057,59.057,0,1,1,152.6,100.846,59.059,59.059,0,0,1,211.655,159.9" fill="none"/>
    </clipPath>
    <clipPath id="clip-path-24">
      <rect id="Rectángulo_3903" data-name="Rectángulo 3903" width="11.619" height="5.966" transform="translate(146.788 187.865)" fill="none"/>
    </clipPath>
    <clipPath id="clip-path-25">
      <rect id="Rectángulo_3904" data-name="Rectángulo 3904" width="2.817" height="5.52" transform="translate(177.012 162.801)" fill="none"/>
    </clipPath>
    <clipPath id="clip-path-26">
      <rect id="Rectángulo_3905" data-name="Rectángulo 3905" width="1.735" height="2.006" transform="translate(175.968 164.944)" fill="none"/>
    </clipPath>
    <clipPath id="clip-path-27">
      <rect id="Rectángulo_3906" data-name="Rectángulo 3906" width="2.813" height="5.52" transform="translate(126.103 162.801)" fill="none"/>
    </clipPath>
    <clipPath id="clip-path-28">
      <rect id="Rectángulo_3907" data-name="Rectángulo 3907" width="1.736" height="2.006" transform="translate(128.224 164.944)" fill="none"/>
    </clipPath>
    <clipPath id="clip-path-29">
      <rect id="Rectángulo_3908" data-name="Rectángulo 3908" width="30.845" height="14.099" transform="translate(140.118 134.456)" fill="none"/>
    </clipPath>
    <clipPath id="clip-path-30">
      <rect id="Rectángulo_3916" data-name="Rectángulo 3916" width="118.112" height="118.116" transform="translate(0 123.884)" fill="none"/>
    </clipPath>
    <clipPath id="clip-path-31">
      <path id="Trazado_39872" data-name="Trazado 39872" d="M118.113,182.943a59.056,59.056,0,1,1-59.06-59.058,59.058,59.058,0,0,1,59.06,59.058" fill="none"/>
    </clipPath>
    <clipPath id="clip-path-32">
      <rect id="Rectángulo_3911" data-name="Rectángulo 3911" width="11.615" height="5.969" transform="translate(53.246 210.905)" fill="none"/>
    </clipPath>
    <clipPath id="clip-path-33">
      <rect id="Rectángulo_3912" data-name="Rectángulo 3912" width="2.814" height="5.521" transform="translate(83.47 185.842)" fill="none"/>
    </clipPath>
    <clipPath id="clip-path-34">
      <rect id="Rectángulo_3913" data-name="Rectángulo 3913" width="1.733" height="2.004" transform="translate(82.426 187.988)" fill="none"/>
    </clipPath>
    <clipPath id="clip-path-35">
      <rect id="Rectángulo_3914" data-name="Rectángulo 3914" width="2.818" height="5.521" transform="translate(32.557 185.842)" fill="none"/>
    </clipPath>
    <clipPath id="clip-path-36">
      <rect id="Rectángulo_3915" data-name="Rectángulo 3915" width="1.739" height="2.004" transform="translate(34.678 187.988)" fill="none"/>
    </clipPath>
    <clipPath id="clip-path-37">
      <rect id="Rectángulo_3923" data-name="Rectángulo 3923" width="118.117" height="118.115" transform="translate(149.27 16.33)" fill="none"/>
    </clipPath>
    <clipPath id="clip-path-38">
      <path id="Trazado_39887" data-name="Trazado 39887" d="M267.386,75.387A59.058,59.058,0,1,1,208.328,16.33a59.058,59.058,0,0,1,59.058,59.057" fill="none"/>
    </clipPath>
    <clipPath id="clip-path-39">
      <rect id="Rectángulo_3918" data-name="Rectángulo 3918" width="11.618" height="5.969" transform="translate(202.52 103.349)" fill="none"/>
    </clipPath>
    <clipPath id="clip-path-40">
      <rect id="Rectángulo_3919" data-name="Rectángulo 3919" width="2.815" height="5.52" transform="translate(232.744 78.287)" fill="none"/>
    </clipPath>
    <clipPath id="clip-path-41">
      <rect id="Rectángulo_3920" data-name="Rectángulo 3920" width="1.739" height="2.004" transform="translate(231.697 80.432)" fill="none"/>
    </clipPath>
    <clipPath id="clip-path-42">
      <rect id="Rectángulo_3921" data-name="Rectángulo 3921" width="2.813" height="5.52" transform="translate(181.833 78.287)" fill="none"/>
    </clipPath>
    <clipPath id="clip-path-43">
      <rect id="Rectángulo_3922" data-name="Rectángulo 3922" width="1.735" height="2.004" transform="translate(183.955 80.432)" fill="none"/>
    </clipPath>
    <clipPath id="clip-path-44">
      <rect id="Rectángulo_3930" data-name="Rectángulo 3930" width="118.114" height="118.114" transform="translate(93.539 203.953)" fill="none"/>
    </clipPath>
    <clipPath id="clip-path-45">
      <path id="Trazado_39902" data-name="Trazado 39902" d="M211.653,263.012A59.057,59.057,0,1,1,152.6,203.953a59.057,59.057,0,0,1,59.057,59.059" fill="none"/>
    </clipPath>
    <clipPath id="clip-path-46">
      <rect id="Rectángulo_3925" data-name="Rectángulo 3925" width="11.614" height="5.97" transform="translate(146.791 290.971)" fill="none"/>
    </clipPath>
    <clipPath id="clip-path-47">
      <rect id="Rectángulo_3926" data-name="Rectángulo 3926" width="2.813" height="5.519" transform="translate(177.014 265.91)" fill="none"/>
    </clipPath>
    <clipPath id="clip-path-48">
      <rect id="Rectángulo_3927" data-name="Rectángulo 3927" width="1.733" height="2.004" transform="translate(175.967 268.054)" fill="none"/>
    </clipPath>
    <clipPath id="clip-path-49">
      <rect id="Rectángulo_3928" data-name="Rectángulo 3928" width="2.814" height="5.519" transform="translate(126.101 265.91)" fill="none"/>
    </clipPath>
    <clipPath id="clip-path-50">
      <rect id="Rectángulo_3929" data-name="Rectángulo 3929" width="1.734" height="2.004" transform="translate(128.224 268.054)" fill="none"/>
    </clipPath>
  </defs>
  <g id="Grupo_16077" data-name="Grupo 16077" clip-path="url(#clip-path)">
    <g id="Grupo_16076" data-name="Grupo 16076">
      <g id="Grupo_16075" data-name="Grupo 16075" clip-path="url(#clip-path)">
        <g id="Grupo_15971" data-name="Grupo 15971" style="mix-blend-mode: multiply;isolation: isolate">
          <g id="Grupo_15970" data-name="Grupo 15970">
            <g id="Grupo_15969" data-name="Grupo 15969" clip-path="url(#clip-path-3)">
              <path id="Trazado_39797" data-name="Trazado 39797" d="M157.662,75.387A59.057,59.057,0,1,1,98.605,16.331a59.058,59.058,0,0,1,59.057,59.056" fill="#e64645"/>
              <g id="Grupo_15968" data-name="Grupo 15968">
                <g id="Grupo_15967" data-name="Grupo 15967" clip-path="url(#clip-path-4)">
                  <rect id="Rectángulo_3883" data-name="Rectángulo 3883" width="11.618" height="6.911" transform="translate(94.02 103.026)" fill="#f7ba93"/>
                  <g id="Grupo_15939" data-name="Grupo 15939" style="mix-blend-mode: multiply;isolation: isolate">
                    <g id="Grupo_15938" data-name="Grupo 15938">
                      <g id="Grupo_15937" data-name="Grupo 15937" clip-path="url(#clip-path-5)">
                        <path id="Trazado_39798" data-name="Trazado 39798" d="M101.377,109.012c-2.436-.776-4.477-2.3-4.785-4.979a2.454,2.454,0,0,1,.1-1.007H94.02v6.911h11.618v-.866a7.856,7.856,0,0,1-4.261-.059" fill="#d9d9d9"/>
                      </g>
                    </g>
                  </g>
                  <path id="Trazado_39799" data-name="Trazado 39799" d="M128.909,80.857a5.361,5.361,0,1,1-5.356-5.174,5.267,5.267,0,0,1,5.356,5.174" fill="#f7ba93"/>
                  <g id="Grupo_15942" data-name="Grupo 15942" style="mix-blend-mode: multiply;isolation: isolate">
                    <g id="Grupo_15941" data-name="Grupo 15941">
                      <g id="Grupo_15940" data-name="Grupo 15940" clip-path="url(#clip-path-6)">
                        <path id="Trazado_39800" data-name="Trazado 39800" d="M124.243,77.979a2.02,2.02,0,0,1,.357-.013,3.007,3.007,0,0,1,.952.188,2.312,2.312,0,0,1,1.136.873,3.7,3.7,0,0,1,.2.374c.049.133.086.273.125.413l.046.431c0,.14-.011.281-.017.424a3.761,3.761,0,0,1-.171.806,3.433,3.433,0,0,1-.329.726,2.653,2.653,0,0,1-1,1,2.333,2.333,0,0,1-.513.215,2.833,2.833,0,0,1-.425.068c-.228.007-.357,0-.357,0l.328-.135c.106-.039.216-.115.347-.18a2.949,2.949,0,0,0,.393-.294,2.528,2.528,0,0,0,.379-.419,3.109,3.109,0,0,0,.318-.54,5.232,5.232,0,0,0,.226-.632,3,3,0,0,0,.121-.691l.027-.337-.025-.325c-.027-.1-.048-.206-.072-.307a2,2,0,0,0-.119-.282,2.294,2.294,0,0,0-.789-.833,4.792,4.792,0,0,0-.8-.409c-.207-.082-.333-.12-.333-.12" fill="#d9d9d9"/>
                      </g>
                    </g>
                  </g>
                  <g id="Grupo_15945" data-name="Grupo 15945" style="mix-blend-mode: multiply;isolation: isolate">
                    <g id="Grupo_15944" data-name="Grupo 15944">
                      <g id="Grupo_15943" data-name="Grupo 15943" clip-path="url(#clip-path-7)">
                        <path id="Trazado_39801" data-name="Trazado 39801" d="M124.934,81.112a.876.876,0,1,1-.866-1,.943.943,0,0,1,.866,1" fill="#d9d9d9"/>
                      </g>
                    </g>
                  </g>
                  <path id="Trazado_39802" data-name="Trazado 39802" d="M71.484,80.857a5.358,5.358,0,1,0,5.354-5.174,5.266,5.266,0,0,0-5.354,5.174" fill="#f7ba93"/>
                  <g id="Grupo_15948" data-name="Grupo 15948" style="mix-blend-mode: multiply;isolation: isolate">
                    <g id="Grupo_15947" data-name="Grupo 15947">
                      <g id="Grupo_15946" data-name="Grupo 15946" clip-path="url(#clip-path-8)">
                        <path id="Trazado_39803" data-name="Trazado 39803" d="M76.147,77.979a2.061,2.061,0,0,0-.361-.013,3.016,3.016,0,0,0-.948.188,2.347,2.347,0,0,0-1.14.873c-.072.116-.129.246-.2.374-.048.133-.088.273-.125.413l-.042.431c0,.14.012.281.015.424a3.811,3.811,0,0,0,.166.806,3.49,3.49,0,0,0,.331.726,2.715,2.715,0,0,0,1,1,2.33,2.33,0,0,0,.519.215,2.728,2.728,0,0,0,.417.068c.235.007.361,0,.361,0l-.326-.135c-.1-.039-.216-.115-.35-.18a2.949,2.949,0,0,1-.393-.294,2.61,2.61,0,0,1-.377-.419,2.867,2.867,0,0,1-.315-.54,4.161,4.161,0,0,1-.231-.632,3.222,3.222,0,0,1-.119-.691l-.025-.337.023-.325c.026-.1.048-.206.069-.307.044-.094.069-.195.118-.282a2.349,2.349,0,0,1,.794-.833,4.605,4.605,0,0,1,.8-.409c.206-.082.332-.12.332-.12" fill="#d9d9d9"/>
                      </g>
                    </g>
                  </g>
                  <g id="Grupo_15951" data-name="Grupo 15951" style="mix-blend-mode: multiply;isolation: isolate">
                    <g id="Grupo_15950" data-name="Grupo 15950">
                      <g id="Grupo_15949" data-name="Grupo 15949" clip-path="url(#clip-path-9)">
                        <path id="Trazado_39804" data-name="Trazado 39804" d="M75.456,81.112a.877.877,0,1,0,.869-1,.944.944,0,0,0-.869,1" fill="#d9d9d9"/>
                      </g>
                    </g>
                  </g>
                  <path id="Trazado_39805" data-name="Trazado 39805" d="M123.552,74.037c0,17.573-8.245,29.911-23.723,29.911S76.1,91.61,76.1,74.037s8.56-31.816,24.04-31.816,23.409,14.245,23.409,31.816" fill="#f7ba93"/>
                  <path id="Trazado_39806" data-name="Trazado 39806" d="M94.254,109.65s-14.736,1.947-20.033,6.531c-5.4,4.672-7,8.711-8.938,17.94h69.092c-1.944-9.229-3.54-13.268-8.939-17.94-5.3-4.584-20.032-6.531-20.032-6.531Z" fill="#f7ba93"/>
                  <path id="Trazado_39807" data-name="Trazado 39807" d="M89.8,110.409s-10.282,1.188-15.579,5.772c-5.4,4.672-7,8.711-8.938,17.94h69.092c-1.944-9.229-3.512-13.3-8.939-17.94-4.477-3.825-14.537-5.56-14.537-5.56l-5.5-.971H94.254Z" fill="#fff"/>
                  <path id="Trazado_39808" data-name="Trazado 39808" d="M97.069,118.624a1.02,1.02,0,0,1,.195-.2c-.063.064-.13.129-.195.2l-1.9,15.5h9.318l-1.9-15.5,1.284-5.324a2.4,2.4,0,0,0,.127-2.525,2.807,2.807,0,0,0-1.739-1.3,13.958,13.958,0,0,0-3.543-.123,3.063,3.063,0,0,0-2.736,1.01,2.338,2.338,0,0,0-.195,2.934Z" fill="#e64645"/>
                  <g id="Grupo_15954" data-name="Grupo 15954" style="mix-blend-mode: multiply;isolation: isolate">
                    <g id="Grupo_15953" data-name="Grupo 15953">
                      <g id="Grupo_15952" data-name="Grupo 15952" clip-path="url(#clip-path-10)">
                        <path id="Trazado_39809" data-name="Trazado 39809" d="M96.856,117.8s3.862-1.805,5.72.826a6.159,6.159,0,0,0-5.52,0Z" fill="#c6c6c5"/>
                      </g>
                    </g>
                  </g>
                  <path id="Trazado_39810" data-name="Trazado 39810" d="M89.8,110.409s-10.282,1.188-15.579,5.772c-5.4,4.672-7,8.711-8.938,17.94h69.092c-1.944-9.229-3.512-13.3-8.939-17.94-4.477-3.825-14.537-5.56-14.537-5.56l-11.07,22.867Z" fill="#0c3853"/>
                  <path id="Trazado_39811" data-name="Trazado 39811" d="M89.936,110.566l9.894,22.922-10.516-6.794,2.366-4.063-11.762-9.713s6.67-2.584,10.018-2.352" fill="#031c2d"/>
                  <path id="Trazado_39812" data-name="Trazado 39812" d="M110.9,110.621,99.831,133.488l10.513-6.794-2.366-4.062,11.765-9.714s-5.492-2.528-8.844-2.3" fill="#031c2d"/>
                  <g id="Grupo_15957" data-name="Grupo 15957" style="mix-blend-mode: multiply;isolation: isolate">
                    <g id="Grupo_15956" data-name="Grupo 15956">
                      <g id="Grupo_15955" data-name="Grupo 15955" clip-path="url(#clip-path-11)">
                        <path id="Trazado_39813" data-name="Trazado 39813" d="M87.736,110.606l8.9,6.2-.742-3.1Z" fill="#b1b1b1"/>
                      </g>
                    </g>
                  </g>
                  <g id="Grupo_15960" data-name="Grupo 15960" style="mix-blend-mode: multiply;isolation: isolate">
                    <g id="Grupo_15959" data-name="Grupo 15959">
                      <g id="Grupo_15958" data-name="Grupo 15958" clip-path="url(#clip-path-12)">
                        <path id="Trazado_39814" data-name="Trazado 39814" d="M112.767,110.718l-9.753,6.218.851-3.614Z" fill="#b1b1b1"/>
                      </g>
                    </g>
                  </g>
                  <path id="Trazado_39815" data-name="Trazado 39815" d="M94.02,107.6l-6.284,3,7.435,4.44,5.2-5.738Z" fill="#fff"/>
                  <g id="Grupo_15963" data-name="Grupo 15963" style="mix-blend-mode: multiply;isolation: isolate">
                    <g id="Grupo_15962" data-name="Grupo 15962">
                      <g id="Grupo_15961" data-name="Grupo 15961" clip-path="url(#clip-path-13)">
                        <path id="Trazado_39816" data-name="Trazado 39816" d="M93.928,109.811a4.548,4.548,0,0,1,3.289-1.35l-3.2-.857-6.284,3,5.612,3.351a3.335,3.335,0,0,1,.58-4.146" fill="#d9d9d9"/>
                      </g>
                    </g>
                  </g>
                  <path id="Trazado_39817" data-name="Trazado 39817" d="M106.606,107.6l6.282,3-7.432,4.44-5.2-5.738Z" fill="#fff"/>
                  <g id="Grupo_15966" data-name="Grupo 15966" style="mix-blend-mode: multiply;isolation: isolate">
                    <g id="Grupo_15965" data-name="Grupo 15965">
                      <g id="Grupo_15964" data-name="Grupo 15964" clip-path="url(#clip-path-14)">
                        <path id="Trazado_39818" data-name="Trazado 39818" d="M106.7,109.811a4.543,4.543,0,0,0-3.287-1.35l3.195-.857,6.282,3-5.608,3.351a3.347,3.347,0,0,0-.582-4.146" fill="#d9d9d9"/>
                      </g>
                    </g>
                  </g>
                  <path id="Trazado_39819" data-name="Trazado 39819" d="M76.178,78.319l2.4,2.4.463-19.351S79.2,51.325,89.871,51.325a27.2,27.2,0,0,0,19.914.789s9.982-1.569,11.153,8.788l-.082,20.21,2.553-3.147.143-2.627a78.529,78.529,0,0,0,0-21.053s-2.009-13.865-14.539-16.22c0,0-20.466-5.266-29.1,7.618A26.112,26.112,0,0,0,75.073,65.4Z" fill="#946000"/>
                </g>
              </g>
            </g>
          </g>
        </g>
        <g id="Grupo_15991" data-name="Grupo 15991" style="mix-blend-mode: multiply;isolation: isolate">
          <g id="Grupo_15990" data-name="Grupo 15990">
            <g id="Grupo_15989" data-name="Grupo 15989" clip-path="url(#clip-path-15)">
              <path id="Trazado_39821" data-name="Trazado 39821" d="M312.3,182.943a59.056,59.056,0,1,1-59.057-59.057A59.056,59.056,0,0,1,312.3,182.943" fill="#92934e"/>
              <g id="Grupo_15988" data-name="Grupo 15988">
                <g id="Grupo_15987" data-name="Grupo 15987" clip-path="url(#clip-path-16)">
                  <rect id="Rectángulo_3895" data-name="Rectángulo 3895" width="11.619" height="6.908" transform="translate(247.431 210.905)" fill="#f7ba93"/>
                  <g id="Grupo_15974" data-name="Grupo 15974" style="mix-blend-mode: multiply;isolation: isolate">
                    <g id="Grupo_15973" data-name="Grupo 15973">
                      <g id="Grupo_15972" data-name="Grupo 15972" clip-path="url(#clip-path-17)">
                        <path id="Trazado_39822" data-name="Trazado 39822" d="M248.1,216.064a7.889,7.889,0,0,1,5.075-2.288c1.657-.126,4.492.23,5.377-1.5a1.877,1.877,0,0,1,.5-.636V210.9H247.431v5.967a5.777,5.777,0,0,1,.667-.808" fill="#c6c6c5"/>
                      </g>
                    </g>
                  </g>
                  <path id="Trazado_39823" data-name="Trazado 39823" d="M282.319,188.734a5.359,5.359,0,1,1-5.355-5.173,5.27,5.27,0,0,1,5.355,5.173" fill="#f7ba93"/>
                  <g id="Grupo_15977" data-name="Grupo 15977" style="mix-blend-mode: multiply;isolation: isolate">
                    <g id="Grupo_15976" data-name="Grupo 15976">
                      <g id="Grupo_15975" data-name="Grupo 15975" clip-path="url(#clip-path-18)">
                        <path id="Trazado_39824" data-name="Trazado 39824" d="M277.653,185.856a2.145,2.145,0,0,1,.36-.012,2.951,2.951,0,0,1,.95.188,2.338,2.338,0,0,1,1.139.874,4.1,4.1,0,0,1,.2.373c.047.133.088.272.123.411l.043.431c0,.141-.01.282-.013.425a3.821,3.821,0,0,1-.171.806,3.548,3.548,0,0,1-.329.727,2.686,2.686,0,0,1-1.006,1,2.234,2.234,0,0,1-.517.212,2.984,2.984,0,0,1-.415.07c-.236.006-.364,0-.364,0l.331-.135c.1-.04.212-.116.348-.18a3,3,0,0,0,.39-.294,2.746,2.746,0,0,0,.379-.418,3.507,3.507,0,0,0,.317-.542,4.5,4.5,0,0,0,.226-.633,3,3,0,0,0,.121-.689l.028-.337-.026-.325c-.026-.1-.048-.206-.069-.306-.043-.1-.068-.2-.117-.285a2.341,2.341,0,0,0-.8-.832,4.881,4.881,0,0,0-.8-.408c-.207-.083-.335-.121-.335-.121" fill="#d9d9d9"/>
                      </g>
                    </g>
                  </g>
                  <g id="Grupo_15980" data-name="Grupo 15980" style="mix-blend-mode: multiply;isolation: isolate">
                    <g id="Grupo_15979" data-name="Grupo 15979">
                      <g id="Grupo_15978" data-name="Grupo 15978" clip-path="url(#clip-path-19)">
                        <path id="Trazado_39825" data-name="Trazado 39825" d="M278.346,188.989a.877.877,0,1,1-.866-1,.942.942,0,0,1,.866,1" fill="#d9d9d9"/>
                      </g>
                    </g>
                  </g>
                  <path id="Trazado_39826" data-name="Trazado 39826" d="M224.894,188.734a5.358,5.358,0,1,0,5.354-5.173,5.267,5.267,0,0,0-5.354,5.173" fill="#f7ba93"/>
                  <g id="Grupo_15983" data-name="Grupo 15983" style="mix-blend-mode: multiply;isolation: isolate">
                    <g id="Grupo_15982" data-name="Grupo 15982">
                      <g id="Grupo_15981" data-name="Grupo 15981" clip-path="url(#clip-path-20)">
                        <path id="Trazado_39827" data-name="Trazado 39827" d="M229.557,185.856a2.1,2.1,0,0,0-.358-.012,2.941,2.941,0,0,0-.949.188,2.333,2.333,0,0,0-1.141.874c-.075.113-.131.246-.2.373-.047.133-.087.272-.124.411l-.043.431c0,.141.011.282.018.425a3.748,3.748,0,0,0,.165.806,3.666,3.666,0,0,0,.331.727,2.7,2.7,0,0,0,1.006,1,2.288,2.288,0,0,0,.517.212,2.957,2.957,0,0,0,.419.07c.23.006.358,0,.358,0l-.33-.135c-.1-.04-.213-.116-.348-.18a3.467,3.467,0,0,1-.39-.294,3.03,3.03,0,0,1-.378-.418,3.355,3.355,0,0,1-.317-.542,4.379,4.379,0,0,1-.227-.633,3.174,3.174,0,0,1-.122-.689l-.024-.337.021-.325c.03-.1.051-.206.072-.306.041-.1.069-.2.117-.285a2.336,2.336,0,0,1,.8-.832,4.684,4.684,0,0,1,.8-.408c.208-.083.333-.121.333-.121" fill="#d9d9d9"/>
                      </g>
                    </g>
                  </g>
                  <g id="Grupo_15986" data-name="Grupo 15986" style="mix-blend-mode: multiply;isolation: isolate">
                    <g id="Grupo_15985" data-name="Grupo 15985">
                      <g id="Grupo_15984" data-name="Grupo 15984" clip-path="url(#clip-path-21)">
                        <path id="Trazado_39828" data-name="Trazado 39828" d="M228.868,188.989a.876.876,0,1,0,.866-1,.94.94,0,0,0-.866,1" fill="#d9d9d9"/>
                      </g>
                    </g>
                  </g>
                  <path id="Trazado_39829" data-name="Trazado 39829" d="M276.963,181.915c0,17.573-8.245,29.911-23.724,29.911s-23.722-12.338-23.722-29.911,8.558-31.816,24.036-31.816,23.41,14.245,23.41,31.816" fill="#f7ba93"/>
                  <path id="Trazado_39830" data-name="Trazado 39830" d="M247.665,217.526s-14.735,1.949-20.033,6.533c-5.4,4.673-6.993,8.71-8.94,17.941h69.095c-1.944-9.231-3.54-13.268-8.94-17.941-5.295-4.584-20.032-6.533-20.032-6.533Z" fill="#f7ba93"/>
                  <path id="Trazado_39831" data-name="Trazado 39831" d="M264.519,218.545s9.032.931,14.327,5.515c5.4,4.673,7,8.71,8.941,17.94H218.692c1.946-9.23,3.542-13.267,8.939-17.94,5.3-4.584,14.366-5.525,14.366-5.525s-1.963,12.6,11.738,12.5c0,0,11.316.444,10.784-12.486" fill="#1a728f"/>
                  <line id="Línea_182" data-name="Línea 182" x1="0.466" transform="translate(253.008 242)" fill="#1a728f"/>
                  <path id="Trazado_39832" data-name="Trazado 39832" d="M243.865,218.165a1.824,1.824,0,0,1,.015.656c-.01.074-.635,4.572,1.938,7.535,1.637,1.881,4.312,2.827,7.925,2.794a.849.849,0,0,1,.087,0,9.565,9.565,0,0,0,6.393-2.5c1.761-1.781,2.58-4.939,2.433-8.49l3.776.666c.117,4.487-1.082,8.022-3.566,10.51a13.239,13.239,0,0,1-8.984,3.575c-.152,0-.21,0-.295,0-4.7,0-8.276-1.386-10.636-4.12-3.087-3.578-3-8.319-2.858-9.966Z" fill="#054153"/>
                  <path id="Trazado_39833" data-name="Trazado 39833" d="M228.868,172.249l.854,14.34,2.1.593c-1.844-23.149,10.353-28.447,10.353-28.447l3.411-14.49a17.009,17.009,0,0,0-14.982,8.271s-3.858,3.916-1.733,19.733" fill="#732400"/>
                  <path id="Trazado_39834" data-name="Trazado 39834" d="M228.98,174.108s-.4-1.809-.751-4.534c-.186-1.362-.36-2.953-.507-4.66-.063-.853-.158-1.734-.2-2.632-.026-.448-.053-.9-.08-1.354l-.02-.341,0-.042v-.125l0-.085,0-.171.021-.684a9.714,9.714,0,0,1,.168-1.444,9.472,9.472,0,0,1,.315-1.432c.065-.23.121-.462.192-.687l.26-.655a10.258,10.258,0,0,1,.568-1.253,8.8,8.8,0,0,1,.647-1.153,11.143,11.143,0,0,1,.713-1.038,13.589,13.589,0,0,1,1.485-1.738,13.838,13.838,0,0,1,1.417-1.291,13.516,13.516,0,0,1,1.182-.872,9.788,9.788,0,0,1,1.1-.645,27.082,27.082,0,0,0-2.868,3.5c-.2.27-.388.561-.571.87s-.392.611-.569.946a10.23,10.23,0,0,0-.536,1.026c-.172.354-.354.71-.495,1.092a8.508,8.508,0,0,0-.425,1.155,11.305,11.305,0,0,0-.341,1.205,7.712,7.712,0,0,0-.241,1.22,7.878,7.878,0,0,0-.122,1.272l-.037.683-.009.171,0,.086v.01c0-.159,0-.038,0-.07v.064l.012.34c.015.455.032.908.048,1.356.038.9.026,1.784.042,2.64.011,1.713-.014,3.313-.071,4.687-.1,2.746-.324,4.584-.324,4.584" fill="#511700"/>
                  <path id="Trazado_39835" data-name="Trazado 39835" d="M277.434,175.058,276.58,189.4l-2.1.59c2.127-30.876-9.382-31.391-9.382-31.391l-4.383-11.546a17.01,17.01,0,0,1,14.984,8.273s3.859,3.914,1.733,19.732" fill="#732400"/>
                  <path id="Trazado_39836" data-name="Trazado 39836" d="M242.335,158.643s13.325-5.237,27.06,1.775l1.046-10.591s-2.686-20.682-29.684-14.093a19.669,19.669,0,0,1,4.825,3.138s-10.391-.721-14.98,8.74c0,0,7.026-2.347,12.673-.834,0,0-8.475,5.589-.94,11.865" fill="#732400"/>
                  <path id="Trazado_39837" data-name="Trazado 39837" d="M270.442,149.827a15.357,15.357,0,0,0-.524-1.521,22.295,22.295,0,0,0-3.432-5.973,21.946,21.946,0,0,0-2.089-2.185,18.818,18.818,0,0,0-2.584-1.9,16.571,16.571,0,0,0-2.971-1.448,15.075,15.075,0,0,0-1.578-.545,14.577,14.577,0,0,0-1.611-.412,25.961,25.961,0,0,0-3.22-.5c-.528-.069-1.052-.088-1.566-.112s-1.018-.073-1.511-.055c-.984,0-1.921,0-2.787.06-.867.027-1.66.1-2.368.161s-1.326.111-1.834.177c-1.019.113-1.61.161-1.61.161s.552-.2,1.533-.527a17.637,17.637,0,0,1,1.79-.521,22.993,22.993,0,0,1,2.366-.525c.438-.075.894-.168,1.372-.236l1.485-.154c.51-.067,1.039-.064,1.58-.092a13.348,13.348,0,0,1,1.66.009c.564.024,1.139.038,1.72.118a13.847,13.847,0,0,1,1.754.259,15.969,15.969,0,0,1,1.763.416,15.661,15.661,0,0,1,1.742.568,18.333,18.333,0,0,1,3.26,1.666,16.893,16.893,0,0,1,2.754,2.233,17.451,17.451,0,0,1,4.74,9.26,10.264,10.264,0,0,1,.166,1.619" fill="#511700"/>
                </g>
              </g>
            </g>
          </g>
        </g>
        <g id="Grupo_16014" data-name="Grupo 16014" style="mix-blend-mode: multiply;isolation: isolate">
          <g id="Grupo_16013" data-name="Grupo 16013">
            <g id="Grupo_16012" data-name="Grupo 16012" clip-path="url(#clip-path-22)">
              <path id="Trazado_39839" data-name="Trazado 39839" d="M211.655,159.9A59.057,59.057,0,1,1,152.6,100.845,59.058,59.058,0,0,1,211.655,159.9" fill="#f8b133"/>
              <g id="Grupo_16011" data-name="Grupo 16011">
                <g id="Grupo_16010" data-name="Grupo 16010" clip-path="url(#clip-path-23)">
                  <rect id="Rectángulo_3902" data-name="Rectángulo 3902" width="11.619" height="6.908" transform="translate(146.788 187.865)" fill="#f7ba93"/>
                  <g id="Grupo_15994" data-name="Grupo 15994" style="mix-blend-mode: multiply;isolation: isolate">
                    <g id="Grupo_15993" data-name="Grupo 15993">
                      <g id="Grupo_15992" data-name="Grupo 15992" clip-path="url(#clip-path-24)">
                        <path id="Trazado_39840" data-name="Trazado 39840" d="M147.452,193.022a7.92,7.92,0,0,1,5.078-2.289c1.656-.123,4.493.232,5.376-1.5a1.946,1.946,0,0,1,.5-.635v-.735H146.788v5.966a6.469,6.469,0,0,1,.664-.809" fill="#c6c6c5"/>
                      </g>
                    </g>
                  </g>
                  <path id="Trazado_39841" data-name="Trazado 39841" d="M181.676,165.694a5.36,5.36,0,1,1-5.354-5.174,5.265,5.265,0,0,1,5.354,5.174" fill="#f7ba93"/>
                  <g id="Grupo_15997" data-name="Grupo 15997" style="mix-blend-mode: multiply;isolation: isolate">
                    <g id="Grupo_15996" data-name="Grupo 15996">
                      <g id="Grupo_15995" data-name="Grupo 15995" clip-path="url(#clip-path-25)">
                        <path id="Trazado_39842" data-name="Trazado 39842" d="M177.011,162.814a2.189,2.189,0,0,1,.357-.011,2.973,2.973,0,0,1,.951.188,2.31,2.31,0,0,1,1.14.875,3.2,3.2,0,0,1,.2.372,4.186,4.186,0,0,1,.123.412l.048.43c0,.142-.016.282-.019.424a3.67,3.67,0,0,1-.168.806,3.366,3.366,0,0,1-.331.728,2.672,2.672,0,0,1-1.006,1,2.2,2.2,0,0,1-.516.212,2.589,2.589,0,0,1-.421.07c-.228.006-.357,0-.357,0s.119-.051.327-.135c.1-.039.218-.115.35-.18a3.084,3.084,0,0,0,.391-.295,2.6,2.6,0,0,0,.379-.417,3.168,3.168,0,0,0,.315-.542,4.017,4.017,0,0,0,.228-.633,3.106,3.106,0,0,0,.122-.689l.026-.337-.02-.325c-.032-.1-.049-.206-.073-.307s-.072-.2-.118-.284a2.34,2.34,0,0,0-.793-.831,4.95,4.95,0,0,0-.8-.409c-.206-.084-.333-.122-.333-.122" fill="#d9d9d9"/>
                      </g>
                    </g>
                  </g>
                  <g id="Grupo_16000" data-name="Grupo 16000" style="mix-blend-mode: multiply;isolation: isolate">
                    <g id="Grupo_15999" data-name="Grupo 15999">
                      <g id="Grupo_15998" data-name="Grupo 15998" clip-path="url(#clip-path-26)">
                        <path id="Trazado_39843" data-name="Trazado 39843" d="M177.7,165.947a.877.877,0,1,1-.866-1,.944.944,0,0,1,.866,1" fill="#d9d9d9"/>
                      </g>
                    </g>
                  </g>
                  <path id="Trazado_39844" data-name="Trazado 39844" d="M124.251,165.694a5.359,5.359,0,1,0,5.353-5.174,5.266,5.266,0,0,0-5.353,5.174" fill="#f7ba93"/>
                  <g id="Grupo_16003" data-name="Grupo 16003" style="mix-blend-mode: multiply;isolation: isolate">
                    <g id="Grupo_16002" data-name="Grupo 16002">
                      <g id="Grupo_16001" data-name="Grupo 16001" clip-path="url(#clip-path-27)">
                        <path id="Trazado_39845" data-name="Trazado 39845" d="M128.915,162.814a2.234,2.234,0,0,0-.361-.011,2.993,2.993,0,0,0-.949.188,2.315,2.315,0,0,0-1.136.875,3.207,3.207,0,0,0-.2.372c-.048.133-.085.271-.125.412l-.042.43c0,.142.008.282.014.424a4.126,4.126,0,0,0,.168.806,3.566,3.566,0,0,0,.33.728,2.7,2.7,0,0,0,1.007,1,2.224,2.224,0,0,0,.517.212,2.666,2.666,0,0,0,.416.07c.233.006.361,0,.361,0s-.119-.051-.329-.135c-.1-.039-.214-.115-.349-.18a3.157,3.157,0,0,1-.391-.295,2.637,2.637,0,0,1-.377-.417,3.042,3.042,0,0,1-.315-.542,4.348,4.348,0,0,1-.232-.633,2.99,2.99,0,0,1-.115-.689l-.027-.337.022-.325c.027-.1.047-.206.069-.307.044-.094.07-.2.117-.284a2.328,2.328,0,0,1,.795-.831,4.751,4.751,0,0,1,.8-.409c.205-.084.332-.122.332-.122" fill="#d9d9d9"/>
                      </g>
                    </g>
                  </g>
                  <g id="Grupo_16006" data-name="Grupo 16006" style="mix-blend-mode: multiply;isolation: isolate">
                    <g id="Grupo_16005" data-name="Grupo 16005">
                      <g id="Grupo_16004" data-name="Grupo 16004" clip-path="url(#clip-path-28)">
                        <path id="Trazado_39846" data-name="Trazado 39846" d="M128.223,165.947a.877.877,0,1,0,.869-1,.945.945,0,0,0-.869,1" fill="#d9d9d9"/>
                      </g>
                    </g>
                  </g>
                  <path id="Trazado_39847" data-name="Trazado 39847" d="M176.322,158.874c0,17.573-8.246,29.911-23.726,29.911s-23.723-12.338-23.723-29.911,8.559-31.818,24.041-31.818,23.408,14.247,23.408,31.818" fill="#f7ba93"/>
                  <path id="Trazado_39848" data-name="Trazado 39848" d="M147.021,194.486s-14.736,1.948-20.032,6.532c-5.4,4.671-6.994,8.711-8.939,17.942h69.094c-1.943-9.231-3.539-13.271-8.937-17.942-5.3-4.584-20.036-6.532-20.036-6.532Z" fill="#f7ba93"/>
                  <path id="Trazado_39849" data-name="Trazado 39849" d="M141.356,195.495s-9.071.939-14.367,5.523c-5.4,4.671-6.994,8.711-8.939,17.942h69.094c-1.943-9.231-3.539-13.271-8.937-17.942-5.3-4.584-14.331-5.514-14.331-5.514L152.6,206.723Z" fill="#363c47"/>
                  <path id="Trazado_39850" data-name="Trazado 39850" d="M128.223,149.209l.857,14.34,2.1.592c-1.844-23.148,10.351-28.448,10.351-28.448L144.94,121.2a17.008,17.008,0,0,0-14.981,8.273s-3.857,3.916-1.736,19.734" fill="#422918"/>
                  <path id="Trazado_39851" data-name="Trazado 39851" d="M128.335,151.065s-.431-1.808-.8-4.531c-.2-1.362-.382-2.952-.535-4.658-.067-.854-.166-1.735-.212-2.632q-.04-.674-.082-1.355l-.018-.34,0-.043,0-.132,0-.086,0-.171.019-.684a9.8,9.8,0,0,1,.171-1.452,9.524,9.524,0,0,1,.32-1.442c.066-.232.12-.466.194-.692l.264-.657a10.148,10.148,0,0,1,.576-1.258,8.579,8.579,0,0,1,.654-1.156,11.546,11.546,0,0,1,.721-1.039,16.543,16.543,0,0,1,2.935-3.015,12.9,12.9,0,0,1,1.2-.861,9.458,9.458,0,0,1,1.112-.631,28.325,28.325,0,0,0-2.826,3.534q-.291.408-.561.873c-.191.3-.387.612-.562.947a9.862,9.862,0,0,0-.525,1.025c-.17.354-.351.709-.49,1.089a8.83,8.83,0,0,0-.417,1.15,11.785,11.785,0,0,0-.335,1.2,7.513,7.513,0,0,0-.237,1.21,7.912,7.912,0,0,0-.122,1.263l-.037.683-.008.171-.005.085v0l.012.341c.014.454.03.907.044,1.356.037.9.021,1.784.033,2.64.006,1.713-.03,3.314-.1,4.688-.118,2.746-.38,4.586-.38,4.586" fill="#2a1706"/>
                  <g id="Grupo_16009" data-name="Grupo 16009" style="mix-blend-mode: multiply;isolation: isolate">
                    <g id="Grupo_16008" data-name="Grupo 16008">
                      <g id="Grupo_16007" data-name="Grupo 16007" clip-path="url(#clip-path-29)">
                        <path id="Trazado_39852" data-name="Trazado 39852" d="M140.118,136.542s7.326,12.641,30.845,11.989c0,0-4.4-5.2-2.208-7.673,0,0-22.775-10.831-28.637-4.316" fill="#c6c6c5"/>
                      </g>
                    </g>
                  </g>
                  <path id="Trazado_39853" data-name="Trazado 39853" d="M176.792,152.016l-.858,14.343-2.1.591c1.843-23.149-10.355-28.445-10.355-28.445l-3.408-14.492a17.006,17.006,0,0,1,14.981,8.271s3.857,3.916,1.735,19.732" fill="#422918"/>
                  <path id="Trazado_39854" data-name="Trazado 39854" d="M136.263,123.33s3.383-6.887,15.517-8.771c0,0,20.2-2.43,26.638,11.586,0,0,3.258,6.748,2.082,18.62,0,0-1.219-5.342-4.533-7.118,0,0-.555,6.317-9.274,2.432,0,0-1.386,2.589,1.657,7.2,0,0-28.233,0-32.087-23.945" fill="#422918"/>
                  <path id="Trazado_39855" data-name="Trazado 39855" d="M136.263,123.33a8.656,8.656,0,0,1,1.063-1.861,14.3,14.3,0,0,1,1.621-1.882c.33-.354.733-.669,1.133-1.038.425-.333.875-.687,1.368-1.019a20.221,20.221,0,0,1,3.357-1.87,24.3,24.3,0,0,1,4.043-1.436c.713-.226,1.459-.334,2.206-.507l.563-.119.629-.076c.389-.038.778-.062,1.167-.083a41.711,41.711,0,0,1,4.716.026,38.525,38.525,0,0,1,4.68.637,27.674,27.674,0,0,1,4.413,1.276,22.475,22.475,0,0,1,3.874,1.89,17.935,17.935,0,0,1,3.073,2.339,15.791,15.791,0,0,1,2.138,2.442,14.182,14.182,0,0,1,1.279,2.125,11.361,11.361,0,0,1,.632,1.452l.2.519-.3-.469c-.194-.305-.474-.754-.882-1.286a17.755,17.755,0,0,0-1.539-1.835,13.7,13.7,0,0,0-1.054-1.013c-.375-.349-.8-.686-1.241-1.026a21.291,21.291,0,0,0-3.063-1.9,27.312,27.312,0,0,0-3.721-1.518,33.561,33.561,0,0,0-4.189-1.033,37.316,37.316,0,0,0-4.442-.535,39.321,39.321,0,0,0-4.482-.1l-1.1.056-.492.033-.536.088c-.71.131-1.429.2-2.1.379a30.4,30.4,0,0,0-3.89,1.1l-.894.327c-.287.124-.567.248-.845.369-.568.219-1.075.507-1.581.757a21.31,21.31,0,0,0-2.6,1.643,18.206,18.206,0,0,0-1.824,1.55,14.077,14.077,0,0,0-1.047,1.15,4.523,4.523,0,0,0-.329.446" fill="#2a1706"/>
                </g>
              </g>
            </g>
          </g>
        </g>
        <g id="Grupo_16034" data-name="Grupo 16034" style="mix-blend-mode: multiply;isolation: isolate">
          <g id="Grupo_16033" data-name="Grupo 16033">
            <g id="Grupo_16032" data-name="Grupo 16032" clip-path="url(#clip-path-30)">
              <path id="Trazado_39857" data-name="Trazado 39857" d="M118.113,182.943a59.056,59.056,0,1,1-59.06-59.059,59.057,59.057,0,0,1,59.06,59.059" fill="#92934e"/>
              <g id="Grupo_16031" data-name="Grupo 16031">
                <g id="Grupo_16030" data-name="Grupo 16030" clip-path="url(#clip-path-31)">
                  <path id="Trazado_39858" data-name="Trazado 39858" d="M85.77,190.08s-7.641,25.826-21.14,27.448v-5.886s13.837-25.8,21.14-21.562" fill="#422918"/>
                  <rect id="Rectángulo_3910" data-name="Rectángulo 3910" width="11.614" height="6.911" transform="translate(53.247 210.905)" fill="#f7ba93"/>
                  <g id="Grupo_16017" data-name="Grupo 16017" style="mix-blend-mode: multiply;isolation: isolate">
                    <g id="Grupo_16016" data-name="Grupo 16016">
                      <g id="Grupo_16015" data-name="Grupo 16015" clip-path="url(#clip-path-32)">
                        <path id="Trazado_39859" data-name="Trazado 39859" d="M53.909,216.064a7.913,7.913,0,0,1,5.077-2.288c1.66-.126,4.494.231,5.378-1.5a1.94,1.94,0,0,1,.5-.635V210.9H53.247v5.969a5.835,5.835,0,0,1,.662-.81" fill="#c6c6c5"/>
                      </g>
                    </g>
                  </g>
                  <path id="Trazado_39860" data-name="Trazado 39860" d="M88.132,188.736a5.358,5.358,0,1,1-5.356-5.173,5.267,5.267,0,0,1,5.356,5.173" fill="#f7ba93"/>
                  <g id="Grupo_16020" data-name="Grupo 16020" style="mix-blend-mode: multiply;isolation: isolate">
                    <g id="Grupo_16019" data-name="Grupo 16019">
                      <g id="Grupo_16018" data-name="Grupo 16018" clip-path="url(#clip-path-33)">
                        <path id="Trazado_39861" data-name="Trazado 39861" d="M83.469,185.856a2.135,2.135,0,0,1,.36-.012,2.986,2.986,0,0,1,.946.188,2.347,2.347,0,0,1,1.143.876,4.165,4.165,0,0,1,.195.371c.05.134.088.272.127.413l.043.431c0,.139-.009.282-.019.423a3.622,3.622,0,0,1-.166.8,3.436,3.436,0,0,1-.328.729,2.719,2.719,0,0,1-1.006,1,2.2,2.2,0,0,1-.517.214,3.322,3.322,0,0,1-.418.07c-.235,0-.36,0-.36,0l.327-.135c.1-.04.217-.116.349-.18a3.576,3.576,0,0,0,.393-.294,2.861,2.861,0,0,0,.377-.418,3.48,3.48,0,0,0,.315-.54,3.728,3.728,0,0,0,.228-.635,2.9,2.9,0,0,0,.122-.686l.027-.339-.025-.326c-.027-.1-.047-.208-.071-.306-.042-.1-.067-.195-.116-.285a2.37,2.37,0,0,0-.8-.832,4.687,4.687,0,0,0-.8-.408c-.207-.083-.332-.121-.332-.121" fill="#d9d9d9"/>
                      </g>
                    </g>
                  </g>
                  <g id="Grupo_16023" data-name="Grupo 16023" style="mix-blend-mode: multiply;isolation: isolate">
                    <g id="Grupo_16022" data-name="Grupo 16022">
                      <g id="Grupo_16021" data-name="Grupo 16021" clip-path="url(#clip-path-34)">
                        <path id="Trazado_39862" data-name="Trazado 39862" d="M84.159,188.989a.876.876,0,1,1-.868-1,.941.941,0,0,1,.868,1" fill="#d9d9d9"/>
                      </g>
                    </g>
                  </g>
                  <path id="Trazado_39863" data-name="Trazado 39863" d="M30.706,188.736a5.359,5.359,0,1,0,5.354-5.173,5.268,5.268,0,0,0-5.354,5.173" fill="#f7ba93"/>
                  <g id="Grupo_16026" data-name="Grupo 16026" style="mix-blend-mode: multiply;isolation: isolate">
                    <g id="Grupo_16025" data-name="Grupo 16025">
                      <g id="Grupo_16024" data-name="Grupo 16024" clip-path="url(#clip-path-35)">
                        <path id="Trazado_39864" data-name="Trazado 39864" d="M35.375,185.856a2.209,2.209,0,0,0-.364-.012,2.981,2.981,0,0,0-.945.188,2.339,2.339,0,0,0-1.141.876,4.185,4.185,0,0,0-.2.371c-.046.134-.086.272-.122.413l-.046.431c0,.139.008.282.016.423a3.746,3.746,0,0,0,.17.8,3.347,3.347,0,0,0,.331.729,2.669,2.669,0,0,0,1.006,1,2.18,2.18,0,0,0,.513.214,3.394,3.394,0,0,0,.419.07c.232,0,.364,0,.364,0s-.124-.049-.332-.135c-.1-.04-.217-.116-.348-.18a2.869,2.869,0,0,1-.39-.294,2.52,2.52,0,0,1-.379-.418,3.266,3.266,0,0,1-.318-.54,4.1,4.1,0,0,1-.227-.635,2.9,2.9,0,0,1-.12-.686l-.027-.339.022-.326c.031-.1.051-.208.073-.306.042-.1.067-.195.118-.285a2.351,2.351,0,0,1,.793-.832,4.839,4.839,0,0,1,.8-.408c.207-.083.338-.121.338-.121" fill="#d9d9d9"/>
                      </g>
                    </g>
                  </g>
                  <g id="Grupo_16029" data-name="Grupo 16029" style="mix-blend-mode: multiply;isolation: isolate">
                    <g id="Grupo_16028" data-name="Grupo 16028">
                      <g id="Grupo_16027" data-name="Grupo 16027" clip-path="url(#clip-path-36)">
                        <path id="Trazado_39865" data-name="Trazado 39865" d="M34.677,188.989a.879.879,0,1,0,.871-1,.945.945,0,0,0-.871,1" fill="#d9d9d9"/>
                      </g>
                    </g>
                  </g>
                  <path id="Trazado_39866" data-name="Trazado 39866" d="M82.776,181.917c0,17.571-8.241,29.91-23.723,29.91s-23.722-12.339-23.722-29.91S43.892,150.1,59.37,150.1s23.406,14.245,23.406,31.818" fill="#f7ba93"/>
                  <path id="Trazado_39867" data-name="Trazado 39867" d="M53.477,217.528s-14.733,1.948-20.029,6.531c-5.4,4.673-7,8.71-8.943,17.941H93.6c-1.942-9.231-3.54-13.268-8.94-17.941-5.3-4.583-20.031-6.531-20.031-6.531Z" fill="#f7ba93"/>
                  <path id="Trazado_39868" data-name="Trazado 39868" d="M64.63,217.528a77.36,77.36,0,0,1,13.837,3.264s-3.688,8.93,0,21.208H40.411s2.625-7.493,1.006-21.808a81.348,81.348,0,0,1,12.06-2.664l5.344,10.389Z" fill="#e64645"/>
                  <path id="Trazado_39869" data-name="Trazado 39869" d="M83.651,183.639c-8-1.956-11.879-11.9-11.879-11.9a11.566,11.566,0,0,0,.26,4.812A73.091,73.091,0,0,1,48.781,159.19c-7.363-9.092,4.466-15.064,4.466-15.064,18.97-6.7,27.129,5.972,27.129,5.972s13.476,12.187,6.842,35.746a5.741,5.741,0,0,0-3.567-2.2" fill="#422918"/>
                  <path id="Trazado_39870" data-name="Trazado 39870" d="M50.964,149.518s-17,.58-20.258,27.454c0,0-4.7,49.165,17.361,57.534,0,0-1.45-13.914,5.179-16.948v-6.375s-16.075-2.828-15.867-23.855c0,0,.1-24.268,12.45-28.871Z" fill="#422918"/>
                  <path id="Trazado_39871" data-name="Trazado 39871" d="M84.569,193.709a1.79,1.79,0,1,1-1.793-1.79,1.792,1.792,0,0,1,1.793,1.79" fill="#fff"/>
                </g>
              </g>
            </g>
          </g>
        </g>
        <g id="Grupo_16054" data-name="Grupo 16054" style="mix-blend-mode: multiply;isolation: isolate">
          <g id="Grupo_16053" data-name="Grupo 16053">
            <g id="Grupo_16052" data-name="Grupo 16052" clip-path="url(#clip-path-37)">
              <path id="Trazado_39873" data-name="Trazado 39873" d="M267.386,75.387a59.058,59.058,0,1,1-59.059-59.058,59.059,59.059,0,0,1,59.059,59.058" fill="#ef8046"/>
              <g id="Grupo_16051" data-name="Grupo 16051">
                <g id="Grupo_16050" data-name="Grupo 16050" clip-path="url(#clip-path-38)">
                  <rect id="Rectángulo_3917" data-name="Rectángulo 3917" width="11.618" height="6.911" transform="translate(202.52 103.35)" fill="#f7ba93"/>
                  <g id="Grupo_16037" data-name="Grupo 16037" style="mix-blend-mode: multiply;isolation: isolate">
                    <g id="Grupo_16036" data-name="Grupo 16036">
                      <g id="Grupo_16035" data-name="Grupo 16035" clip-path="url(#clip-path-39)">
                        <path id="Trazado_39874" data-name="Trazado 39874" d="M203.185,108.51a7.888,7.888,0,0,1,5.075-2.289c1.661-.125,4.494.231,5.376-1.5a1.977,1.977,0,0,1,.5-.635v-.737H202.52v5.969a5.794,5.794,0,0,1,.665-.809" fill="#c6c6c5"/>
                      </g>
                    </g>
                  </g>
                  <path id="Trazado_39875" data-name="Trazado 39875" d="M237.409,81.18a5.359,5.359,0,1,1-5.355-5.173,5.266,5.266,0,0,1,5.355,5.173" fill="#f7ba93"/>
                  <g id="Grupo_16040" data-name="Grupo 16040" style="mix-blend-mode: multiply;isolation: isolate">
                    <g id="Grupo_16039" data-name="Grupo 16039">
                      <g id="Grupo_16038" data-name="Grupo 16038" clip-path="url(#clip-path-40)">
                        <path id="Trazado_39876" data-name="Trazado 39876" d="M232.744,78.3a2.107,2.107,0,0,1,.359-.012,3.025,3.025,0,0,1,.948.188,2.311,2.311,0,0,1,1.138.876,3.448,3.448,0,0,1,.2.371c.048.134.086.272.127.413l.042.431c0,.14-.01.282-.016.423a3.746,3.746,0,0,1-.17.805,3.374,3.374,0,0,1-.33.73,2.685,2.685,0,0,1-1.005,1,2.191,2.191,0,0,1-.515.214,3.3,3.3,0,0,1-.416.07c-.235,0-.363,0-.363,0l.328-.135c.1-.039.215-.116.348-.18a3,3,0,0,0,.39-.294,2.434,2.434,0,0,0,.378-.418,3.066,3.066,0,0,0,.317-.54,4.212,4.212,0,0,0,.229-.635,3.108,3.108,0,0,0,.121-.686l.028-.339-.026-.326c-.029-.1-.046-.208-.07-.306a2.449,2.449,0,0,0-.119-.285,2.345,2.345,0,0,0-.792-.831,4.828,4.828,0,0,0-.8-.409c-.2-.083-.332-.121-.332-.121" fill="#d9d9d9"/>
                      </g>
                    </g>
                  </g>
                  <g id="Grupo_16043" data-name="Grupo 16043" style="mix-blend-mode: multiply;isolation: isolate">
                    <g id="Grupo_16042" data-name="Grupo 16042">
                      <g id="Grupo_16041" data-name="Grupo 16041" clip-path="url(#clip-path-41)">
                        <path id="Trazado_39877" data-name="Trazado 39877" d="M233.436,81.433a.878.878,0,1,1-.869-1,.943.943,0,0,1,.869,1" fill="#d9d9d9"/>
                      </g>
                    </g>
                  </g>
                  <path id="Trazado_39878" data-name="Trazado 39878" d="M179.984,81.18a5.357,5.357,0,1,0,5.354-5.173,5.266,5.266,0,0,0-5.354,5.173" fill="#f7ba93"/>
                  <g id="Grupo_16046" data-name="Grupo 16046" style="mix-blend-mode: multiply;isolation: isolate">
                    <g id="Grupo_16045" data-name="Grupo 16045">
                      <g id="Grupo_16044" data-name="Grupo 16044" clip-path="url(#clip-path-42)">
                        <path id="Trazado_39879" data-name="Trazado 39879" d="M184.646,78.3a2.125,2.125,0,0,0-.36-.012,3.03,3.03,0,0,0-.947.188,2.341,2.341,0,0,0-1.14.876c-.075.113-.132.244-.2.371-.044.134-.084.272-.121.413l-.043.431c0,.14.009.282.016.423a3.626,3.626,0,0,0,.168.805,3.522,3.522,0,0,0,.329.73,2.749,2.749,0,0,0,1,1,2.244,2.244,0,0,0,.518.214,3.126,3.126,0,0,0,.418.07c.235,0,.36,0,.36,0l-.328-.135c-.1-.039-.215-.116-.347-.18a3,3,0,0,1-.391-.294,2.439,2.439,0,0,1-.379-.418,3.19,3.19,0,0,1-.316-.54,4.108,4.108,0,0,1-.23-.635,3.106,3.106,0,0,1-.118-.686l-.026-.339.023-.326c.029-.1.046-.208.069-.306a2.85,2.85,0,0,1,.118-.285,2.359,2.359,0,0,1,.794-.831,4.67,4.67,0,0,1,.8-.409c.208-.083.333-.121.333-.121" fill="#d9d9d9"/>
                      </g>
                    </g>
                  </g>
                  <g id="Grupo_16049" data-name="Grupo 16049" style="mix-blend-mode: multiply;isolation: isolate">
                    <g id="Grupo_16048" data-name="Grupo 16048">
                      <g id="Grupo_16047" data-name="Grupo 16047" clip-path="url(#clip-path-43)">
                        <path id="Trazado_39880" data-name="Trazado 39880" d="M183.955,81.433a.876.876,0,1,0,.868-1,.943.943,0,0,0-.868,1" fill="#d9d9d9"/>
                      </g>
                    </g>
                  </g>
                  <path id="Trazado_39881" data-name="Trazado 39881" d="M232.053,74.361c0,17.571-8.249,29.91-23.723,29.91S184.6,91.932,184.6,74.361s8.557-31.818,24.037-31.818,23.411,14.245,23.411,31.818" fill="#f7ba93"/>
                  <path id="Trazado_39882" data-name="Trazado 39882" d="M202.754,109.972s-14.737,1.949-20.033,6.531c-5.4,4.673-6.994,8.711-8.941,17.942h69.1c-1.945-9.231-3.542-13.269-8.937-17.942-5.3-4.582-20.034-6.531-20.034-6.531Z" fill="#f7ba93"/>
                  <path id="Trazado_39883" data-name="Trazado 39883" d="M194.921,111.472s1.589-.674-4.229,1.164c1.6,14.482-1.006,21.809-1.006,21.809H227.74c-3.686-12.279,0-21.207,0-21.207l-3.518-1.276S223.9,129.6,208.1,128.374c0,0-13.695,1.344-13.175-16.9" fill="#00b0c2"/>
                  <path id="Trazado_39884" data-name="Trazado 39884" d="M200.239,41.963s-17,.58-20.255,27.454c0,0-3.171,22.136,7.557,41.011A70.279,70.279,0,0,1,202.52,110v-6.375s-16.073-2.828-15.864-23.855c0,0,.1-24.268,12.444-28.871Z" fill="#732400"/>
                  <path id="Trazado_39885" data-name="Trazado 39885" d="M216.419,41.963s19.275-.3,22.532,26.576c0,0,1.67,17.98-9.834,41.889A70.306,70.306,0,0,0,214.138,110v-6.375S230.207,100.8,230,79.773c0,0-.105-24.268-12.45-28.871Z" fill="#732400"/>
                  <path id="Trazado_39886" data-name="Trazado 39886" d="M193.41,48.77a37.634,37.634,0,0,0,33.795,15.8L231.7,76.007l4.452,1.847s6.727-1.847-.268-29.084c0,0-7.233-19.914-33.361-13.985,0,0-13.015,2.377-9.11,13.985" fill="#732400"/>
                </g>
              </g>
            </g>
          </g>
        </g>
        <g id="Grupo_16074" data-name="Grupo 16074" style="mix-blend-mode: multiply;isolation: isolate">
          <g id="Grupo_16073" data-name="Grupo 16073">
            <g id="Grupo_16072" data-name="Grupo 16072" clip-path="url(#clip-path-44)">
              <path id="Trazado_39888" data-name="Trazado 39888" d="M211.653,263.011A59.057,59.057,0,1,1,152.6,203.952a59.057,59.057,0,0,1,59.057,59.059" fill="#e64645"/>
              <g id="Grupo_16071" data-name="Grupo 16071">
                <g id="Grupo_16070" data-name="Grupo 16070" clip-path="url(#clip-path-45)">
                  <rect id="Rectángulo_3924" data-name="Rectángulo 3924" width="11.614" height="6.912" transform="translate(146.791 290.972)" fill="#f7ba93"/>
                  <g id="Grupo_16057" data-name="Grupo 16057" style="mix-blend-mode: multiply;isolation: isolate">
                    <g id="Grupo_16056" data-name="Grupo 16056">
                      <g id="Grupo_16055" data-name="Grupo 16055" clip-path="url(#clip-path-46)">
                        <path id="Trazado_39889" data-name="Trazado 39889" d="M147.455,296.133a7.876,7.876,0,0,1,5.077-2.289c1.657-.125,4.491.23,5.373-1.5a2,2,0,0,1,.5-.635v-.737H146.791v5.97a5.858,5.858,0,0,1,.664-.809" fill="#c6c6c5"/>
                      </g>
                    </g>
                  </g>
                  <path id="Trazado_39890" data-name="Trazado 39890" d="M181.676,268.8a5.36,5.36,0,1,1-5.354-5.172,5.266,5.266,0,0,1,5.354,5.172" fill="#f7ba93"/>
                  <g id="Grupo_16060" data-name="Grupo 16060" style="mix-blend-mode: multiply;isolation: isolate">
                    <g id="Grupo_16059" data-name="Grupo 16059">
                      <g id="Grupo_16058" data-name="Grupo 16058" clip-path="url(#clip-path-47)">
                        <path id="Trazado_39891" data-name="Trazado 39891" d="M177.013,265.925a2.161,2.161,0,0,1,.358-.013,3.018,3.018,0,0,1,.947.187,2.317,2.317,0,0,1,1.139.876,3.638,3.638,0,0,1,.2.371c.045.134.085.274.122.413l.045.431c0,.141-.009.282-.016.425a3.811,3.811,0,0,1-.168.8,3.507,3.507,0,0,1-.332.73,2.671,2.671,0,0,1-1.005,1,2.252,2.252,0,0,1-.513.214,3.185,3.185,0,0,1-.421.07c-.229,0-.358,0-.358,0l.325-.136c.1-.038.217-.116.35-.18a2.893,2.893,0,0,0,.391-.294,2.471,2.471,0,0,0,.377-.418,2.994,2.994,0,0,0,.317-.54,3.929,3.929,0,0,0,.228-.634,3.239,3.239,0,0,0,.12-.687l.027-.339-.022-.326c-.03-.1-.046-.206-.071-.306-.042-.1-.069-.2-.117-.283a2.365,2.365,0,0,0-.794-.833,5.053,5.053,0,0,0-.8-.408c-.2-.082-.331-.12-.331-.12" fill="#d9d9d9"/>
                      </g>
                    </g>
                  </g>
                  <g id="Grupo_16063" data-name="Grupo 16063" style="mix-blend-mode: multiply;isolation: isolate">
                    <g id="Grupo_16062" data-name="Grupo 16062">
                      <g id="Grupo_16061" data-name="Grupo 16061" clip-path="url(#clip-path-48)">
                        <path id="Trazado_39892" data-name="Trazado 39892" d="M177.7,269.057a.876.876,0,1,1-.866-1,.94.94,0,0,1,.866,1" fill="#d9d9d9"/>
                      </g>
                    </g>
                  </g>
                  <path id="Trazado_39893" data-name="Trazado 39893" d="M124.252,268.8a5.357,5.357,0,1,0,5.353-5.172,5.265,5.265,0,0,0-5.353,5.172" fill="#f7ba93"/>
                  <g id="Grupo_16066" data-name="Grupo 16066" style="mix-blend-mode: multiply;isolation: isolate">
                    <g id="Grupo_16065" data-name="Grupo 16065">
                      <g id="Grupo_16064" data-name="Grupo 16064" clip-path="url(#clip-path-49)">
                        <path id="Trazado_39894" data-name="Trazado 39894" d="M128.915,265.925a2.188,2.188,0,0,0-.36-.013,3.008,3.008,0,0,0-.946.187,2.334,2.334,0,0,0-1.141.876,3.619,3.619,0,0,0-.2.371c-.048.134-.085.274-.126.413l-.043.431c0,.141.009.282.018.425a3.746,3.746,0,0,0,.166.8,3.453,3.453,0,0,0,.331.73,2.68,2.68,0,0,0,1.006,1,2.142,2.142,0,0,0,.515.214,3.151,3.151,0,0,0,.418.07c.231,0,.36,0,.36,0s-.121-.049-.328-.136c-.1-.038-.217-.116-.349-.18a2.888,2.888,0,0,1-.39-.294,2.61,2.61,0,0,1-.378-.418,3.393,3.393,0,0,1-.317-.54,4.242,4.242,0,0,1-.23-.634,3,3,0,0,1-.117-.687l-.026-.339.021-.326c.029-.1.048-.206.071-.306.042-.1.068-.2.118-.283a2.357,2.357,0,0,1,.794-.833,4.8,4.8,0,0,1,.8-.408c.207-.082.333-.12.333-.12" fill="#d9d9d9"/>
                      </g>
                    </g>
                  </g>
                  <g id="Grupo_16069" data-name="Grupo 16069" style="mix-blend-mode: multiply;isolation: isolate">
                    <g id="Grupo_16068" data-name="Grupo 16068">
                      <g id="Grupo_16067" data-name="Grupo 16067" clip-path="url(#clip-path-50)">
                        <path id="Trazado_39895" data-name="Trazado 39895" d="M128.223,269.057a.876.876,0,1,0,.869-1,.943.943,0,0,0-.869,1" fill="#d9d9d9"/>
                      </g>
                    </g>
                  </g>
                  <path id="Trazado_39896" data-name="Trazado 39896" d="M176.322,261.983c0,17.573-8.242,29.912-23.726,29.912s-23.723-12.339-23.723-29.912,8.557-31.817,24.038-31.817,23.411,14.245,23.411,31.817" fill="#f7ba93"/>
                  <path id="Trazado_39897" data-name="Trazado 39897" d="M147.023,297.594s-14.738,1.949-20.033,6.531c-5.4,4.674-7,8.71-8.94,17.942h69.094c-1.945-9.232-3.542-13.268-8.939-17.942-5.3-4.582-20.034-6.531-20.034-6.531Z" fill="#f7ba93"/>
                  <path id="Trazado_39898" data-name="Trazado 39898" d="M165.321,298.933c4.531,1.05,10.052,2.745,12.884,5.192,5.4,4.674,6.994,8.71,8.939,17.942H118.05c1.942-9.232,3.542-13.268,8.94-17.942,2.91-2.516,8.669-4.24,13.265-5.281l12.341,13.3Z" fill="#871719"/>
                  <path id="Trazado_39899" data-name="Trazado 39899" d="M144.508,229.587s-17,.579-20.256,27.453c0,0-.635,23.084-.635,50.384,0,0,3.89-6.821,23.173-9.8V291.25s-16.077-2.828-15.868-23.854c0,0,.108-24.269,12.449-28.871Z" fill="#422918"/>
                  <path id="Trazado_39900" data-name="Trazado 39900" d="M160.688,229.587s19.309-.973,22.564,25.9c0,0,.377,23.85-1.576,52.207,0,0-5.354-7.645-23.271-10.068V291.25s16.073-2.828,15.866-23.854c0,0-.1-24.269-12.449-28.871Z" fill="#422918"/>
                  <path id="Trazado_39901" data-name="Trazado 39901" d="M149.965,255.488l2.4-12.038v12.038h11.918l1.975-8.474,2.057,8.474h14.939a77.448,77.448,0,0,0-1.576-15.482s-3.976-18.726-32.022-17.073c0,0-23.63,0-25.341,32.555Z" fill="#422918"/>
                </g>
              </g>
            </g>
          </g>
        </g>
        <path id="Trazado_39903" data-name="Trazado 39903" d="M144.817,8.166A8.166,8.166,0,1,1,136.651,0a8.165,8.165,0,0,1,8.166,8.166" fill="#eae699"/>
        <path id="Trazado_39904" data-name="Trazado 39904" d="M158.185,27.075a5.589,5.589,0,1,1-5.589-5.589,5.589,5.589,0,0,1,5.589,5.589" fill="#e64645"/>
        <path id="Trazado_39905" data-name="Trazado 39905" d="M179.261,9.78A9.781,9.781,0,1,1,169.476,0a9.782,9.782,0,0,1,9.785,9.78" fill="#f8b133"/>
        <path id="Trazado_39906" data-name="Trazado 39906" d="M281.248,106.137a7.274,7.274,0,1,1-7.272,7.274,7.274,7.274,0,0,1,7.272-7.274" fill="#eae699"/>
        <path id="Trazado_39907" data-name="Trazado 39907" d="M298.092,94.229a4.979,4.979,0,1,1-4.979,4.979,4.979,4.979,0,0,1,4.979-4.979" fill="#e64645"/>
        <path id="Trazado_39908" data-name="Trazado 39908" d="M282.685,75.458a8.711,8.711,0,1,1-8.71,8.714,8.714,8.714,0,0,1,8.71-8.714" fill="#f8b133"/>
        <path id="Trazado_39909" data-name="Trazado 39909" d="M16.87,111.088a7.274,7.274,0,1,1-9.813,3.088,7.275,7.275,0,0,1,9.813-3.088" fill="#eae699"/>
        <path id="Trazado_39910" data-name="Trazado 39910" d="M37.309,108.315a4.978,4.978,0,1,1-6.717,2.113,4.978,4.978,0,0,1,6.717-2.113" fill="#e64645"/>
        <path id="Trazado_39911" data-name="Trazado 39911" d="M32.331,84.549a8.711,8.711,0,1,1-11.755,3.7,8.71,8.71,0,0,1,11.755-3.7" fill="#f8b133"/>
        <path id="Trazado_39912" data-name="Trazado 39912" d="M73.4,279.364a7.274,7.274,0,1,1-2.813,9.895,7.274,7.274,0,0,1,2.813-9.895" fill="#eae699"/>
        <path id="Trazado_39913" data-name="Trazado 39913" d="M82.314,260.762a4.978,4.978,0,1,1-1.925,6.771,4.975,4.975,0,0,1,1.925-6.771" fill="#e64645"/>
        <path id="Trazado_39914" data-name="Trazado 39914" d="M59.721,251.864a8.711,8.711,0,1,1-3.369,11.853,8.712,8.712,0,0,1,3.369-11.853" fill="#f8b133"/>
        <path id="Trazado_39915" data-name="Trazado 39915" d="M229.294,269.1a7.273,7.273,0,1,1-9.9-2.813,7.27,7.27,0,0,1,9.9,2.813" fill="#eae699"/>
        <path id="Trazado_39916" data-name="Trazado 39916" d="M247.9,278.019a4.977,4.977,0,1,1-6.774-1.924,4.974,4.974,0,0,1,6.774,1.924" fill="#e64645"/>
        <path id="Trazado_39917" data-name="Trazado 39917" d="M256.8,255.425a8.712,8.712,0,1,1-11.852-3.368,8.711,8.711,0,0,1,11.852,3.368" fill="#f8b133"/>
      </g>
    </g>
  </g>
</svg>
