<?xml version="1.0" encoding="utf-8"?>
<!-- Generator: Adobe Illustrator 25.2.1, SVG Export Plug-In . SVG Version: 6.00 Build 0)  -->
<svg version="1.1" id="Capa_1" xmlns="http://www.w3.org/2000/svg" xmlns:xlink="http://www.w3.org/1999/xlink" x="0px" y="0px"
	 viewBox="0 0 206 206" style="enable-background:new 0 0 206 206;" xml:space="preserve">
<style type="text/css">
	.st0{fill:#FFFFFF;}
	.st1{fill:#ED8730;}
</style>
<g id="Grupo_16081" transform="translate(-116 -2588)">
	<g id="Trazado_30413" transform="translate(116 2588)">
		<path class="st0" d="M103,204c-6.9,0-13.7-0.7-20.4-2.1c-6.5-1.3-12.9-3.3-19-5.9c-6-2.5-11.8-5.7-17.2-9.3
			c-5.3-3.6-10.4-7.8-14.9-12.3c-4.6-4.6-8.7-9.6-12.3-14.9c-3.6-5.4-6.8-11.2-9.3-17.2c-2.6-6.1-4.6-12.5-5.9-19
			C2.7,116.7,2,109.9,2,103s0.7-13.7,2.1-20.4c1.3-6.5,3.3-12.9,5.9-19c2.5-6,5.7-11.8,9.3-17.2c3.6-5.3,7.8-10.4,12.3-14.9
			c4.6-4.6,9.6-8.7,14.9-12.3c5.4-3.6,11.2-6.8,17.2-9.3c6.1-2.6,12.5-4.6,19-5.9C89.3,2.7,96.1,2,103,2s13.7,0.7,20.4,2.1
			c6.5,1.3,12.9,3.3,19,5.9c6,2.5,11.8,5.7,17.2,9.3c5.3,3.6,10.4,7.8,14.9,12.3c4.6,4.6,8.7,9.6,12.3,14.9
			c3.6,5.4,6.8,11.2,9.3,17.2c2.6,6.1,4.6,12.5,5.9,19c1.4,6.7,2.1,13.5,2.1,20.4s-0.7,13.7-2.1,20.4c-1.3,6.5-3.3,12.9-5.9,19
			c-2.5,6-5.7,11.8-9.3,17.2c-3.6,5.3-7.8,10.4-12.3,14.9c-4.6,4.6-9.6,8.7-14.9,12.3c-5.4,3.6-11.2,6.8-17.2,9.3
			c-6.1,2.6-12.5,4.6-19,5.9C116.7,203.3,109.9,204,103,204z"/>
		<path class="st1" d="M103,4c-6.7,0-13.4,0.7-20,2c-6.4,1.3-12.6,3.2-18.6,5.8c-5.9,2.5-11.5,5.6-16.8,9.1
			C42.4,24.4,37.5,28.5,33,33c-4.5,4.5-8.5,9.4-12.1,14.7c-3.6,5.3-6.6,10.9-9.1,16.8C9.3,70.4,7.3,76.7,6,83c-1.3,6.5-2,13.2-2,20
			s0.7,13.4,2,20c1.3,6.4,3.2,12.6,5.8,18.6c2.5,5.9,5.6,11.5,9.1,16.8c3.5,5.2,7.6,10.2,12.1,14.7c4.5,4.5,9.4,8.5,14.7,12.1
			c5.3,3.6,10.9,6.6,16.8,9.1c6,2.5,12.2,4.5,18.6,5.8c6.5,1.3,13.2,2,20,2s13.4-0.7,20-2c6.4-1.3,12.6-3.2,18.6-5.8
			c5.9-2.5,11.5-5.6,16.8-9.1c5.2-3.5,10.2-7.6,14.7-12.1c4.5-4.5,8.5-9.4,12.1-14.7c3.6-5.3,6.6-10.9,9.1-16.8
			c2.5-6,4.5-12.2,5.8-18.6c1.3-6.5,2-13.2,2-20s-0.7-13.4-2-20c-1.3-6.4-3.2-12.6-5.8-18.6c-2.5-5.9-5.6-11.5-9.1-16.8
			c-3.5-5.2-7.6-10.2-12.1-14.7c-4.5-4.5-9.4-8.5-14.7-12.1c-5.3-3.6-10.9-6.6-16.8-9.1c-6-2.5-12.2-4.5-18.6-5.8
			C116.4,4.7,109.7,4,103,4 M103,0c56.9,0,103,46.1,103,103s-46.1,103-103,103S0,159.9,0,103S46.1,0,103,0z"/>
	</g>
</g>
<image style="overflow:visible;" width="972" height="980" xlink:href="img1.png"  transform="matrix(0.1944 0 0 0.1944 8.5137 7.736)">
</image>
</svg>
