<svg xmlns="http://www.w3.org/2000/svg" xmlns:xlink="http://www.w3.org/1999/xlink" width="273.336" height="69.34" viewBox="0 0 273.336 69.34">
  <defs>
    <clipPath id="clip-path">
      <rect id="Rectángulo_3826" data-name="Rectángulo 3826" width="273.336" height="69.34" fill="none"/>
    </clipPath>
  </defs>
  <g id="Grupo_15918" data-name="Grupo 15918" transform="translate(0 0)">
    <g id="Grupo_15917" data-name="Grupo 15917" transform="translate(0 0)" clip-path="url(#clip-path)">
      <path id="Trazado_38008" data-name="Trazado 38008" d="M63.9,9.644c1.5,1.8,4.131,2.851,5.673,4.645-1.1-5.307-5.2-9.648-10.048-10.68,2.359,1.777,2.87,4.24,4.375,6.035M5.643,23.107c3.334-7.265,8.319-5.725,10.427-12.651-1.191,2.123-6.633,3.021-9.16,8.465,1.291-3.236.645-8.184,2.825-10.854-6.52,4.815-3.741,12.6-4.092,15.04m6.043,17.426c.6,2.833-1.159,6.912,1.638,10.817-2.9-3.249-9.031-4.075-11.54-9.018C4.913,54.4,13.062,51.919,16.743,54.543c-3.027-4.347-.553-7.235-5.057-14.01m-.939,7.579c-1.8-6.749,1.4-9.073-1.034-15.549-.255,3.646-2.683,5.423-1.045,12.091C5.775,39.007,1.3,36.905,0,33.031c.089,10.59,8.6,12.161,10.747,15.081M23.818,59.423c-2.509-3.467-.8-5.427-7.836-11.727,1.492,2.3-.044,5.194,4.7,9.689-4.643-2.74-11.052-1.57-14.14-5.227,5.307,10.148,14.63,6.006,17.274,7.265m34.056-2.038c4.75-4.495,3.212-7.387,4.7-9.689-7.039,6.3-5.329,8.26-7.833,11.727,2.644-1.259,11.969,2.883,17.272-7.265-3.088,3.656-9.5,2.487-14.142,5.227m7.361-6.035c2.8-3.9,1.041-7.984,1.638-10.817-4.5,6.775-2.025,9.663-5.052,14.01,3.68-2.624,11.83-.139,14.959-12.211-2.511,4.944-8.644,5.769-11.544,9.018M54,59.9a34.8,34.8,0,0,0-7.7-1.152,18.631,18.631,0,0,0-7.019,1.191,18.612,18.612,0,0,0-7.017-1.191,34.814,34.814,0,0,0-7.7,1.152c-4.231,1.128-7.892,2-11.078.388C16.54,63,20.11,63.971,25.264,63.413c4.292-.46,7.753-2.6,11.8-2.578.054,0,.107,0,.159,0a21.644,21.644,0,0,0-6.67,5.19l1.951.264a10.74,10.74,0,0,1,6.777-5.2,10.732,10.732,0,0,1,6.777,5.2l1.951-.264a21.644,21.644,0,0,0-6.671-5.19c.054,0,.1,0,.159,0,4.044-.026,7.509,2.119,11.8,2.578,5.153.558,8.722-.414,11.777-3.123-3.19,1.612-6.851.74-11.08-.388M10,25.25C8.256,28.6,5.542,29.368,5.83,36.285,4.369,30.137.869,27.854.917,23.928-1.518,34.17,4.981,35.387,6.653,39.678,6.4,33.528,10.331,32.291,10,25.25m2.437-7.912a12.275,12.275,0,0,1-2.655,2.548,13.18,13.18,0,0,0-4.719,7.7c.168-3.757-2.149-9.155-.608-13.088-5.976,8.439.338,13.491.566,16.544,1.542-5.882,5.1-5.928,7.415-13.709M73.5,27.591a13.191,13.191,0,0,0-4.719-7.7,12.3,12.3,0,0,1-2.657-2.548c2.315,7.781,5.876,7.827,7.422,13.709.222-3.053,6.54-8.106.564-16.544,1.544,3.933-.777,9.332-.61,13.088m5.068,5.44c-1.3,3.874-5.775,5.976-8.67,11.623,1.64-6.668-.788-8.445-1.048-12.091-2.435,6.477.773,8.8-1.032,15.549,2.147-2.92,10.658-4.491,10.749-15.081m-10-7.781c-.333,7.041,3.6,8.278,3.349,14.428,1.67-4.29,8.171-5.508,5.734-15.75.048,3.927-3.452,6.209-4.913,12.357.285-6.917-2.424-7.683-4.17-11.035M14.659,9.644c1.5-1.794,2.014-4.258,4.377-6.035C14.188,4.642,10.09,8.982,8.983,14.289c1.544-1.794,4.168-2.849,5.675-4.645m47.832.812c2.108,6.925,7.091,5.386,10.429,12.651-.351-2.441,2.43-10.225-4.094-15.04,2.182,2.67,1.533,7.618,2.825,10.854-2.528-5.444-7.971-6.342-9.16-8.465M45.568,14.387a16.378,16.378,0,0,0-3.97-1.08q-.007.441-.02.889A15.355,15.355,0,0,1,45.245,15.2a2.366,2.366,0,0,0,.322-.817M44.557,5.82l.268-.242-.505-.213-1.335-.024-.346.237-.786-.063-.009.192a12.5,12.5,0,0,1,1.374.144l.649-.059ZM41.992,34.549c0-.226-.3-.446-.743-.656h-.081c0,.183-.02,1.085-.03,1.527.551-.25.854-.514.854-.871M26.558,17.615a3.76,3.76,0,0,1,.109-.483,2.3,2.3,0,0,1-.544.054Zm12.751,39.2A27.183,27.183,0,0,0,42.066,2.588c-.013.05-.024.107-.035.157-.054.264-.1.5-.142.714a26.223,26.223,0,0,1,15.826,7.407l-3,3,.115-.523-.394-.176-.54-.028.115-.348-.362-1.23-.749-.817L50.559,9.5l-.2.216-.427.124a7.011,7.011,0,0,1,1.241,3.94c0,.183-.007.357-.015.531l1.165,1.463-.544.122.359.544-1.024,1.026-.414-.782a6.943,6.943,0,0,1-.775,1.527c.076.072.155.139.226.211L47,21.585c-.192-.183-.388-.357-.595-.525q-.454.212-.923.392c.089.068.181.137.268.209l-.161.161-.368.209-.139.366-.231-.231-.664.226.183.29.46-.124.3.026.024-.163.231-.113.068-.142.416-.113.322-.013c.063.054.128.109.189.17l-1.252,1.254-.094-.135-1.309.216-.292.294-.285.03.812-.78-.292-.144L42.9,23.963l.222-.026-.011.375.277.107.052.4-.453-.089-.475.089-1.15-.59s-.065,3.084-.1,4.636c2.709.908,5.593,2.228,5.593,5.686A4.266,4.266,0,0,1,44.91,38.2l.013,0c-.022.011-.039.028-.059.037l-.009,0c-.028.022-.057.044-.085.063A14.957,14.957,0,0,1,41.04,39.8L41,42.217c1.947.971,4.305,2.378,4.088,6.4-.024.991-.412,1.259-.743,1.352a21.171,21.171,0,0,1-3.513.558c-.009.309-.013.608-.017.884a21.779,21.779,0,0,0,13.552-5.984l3.156,3.156a26.26,26.26,0,0,1-36.353.076l3.158-3.16a21.764,21.764,0,0,0,13.358,5.9c0-.272-.009-.571-.013-.884a20.887,20.887,0,0,1-12.72-5.645l.843-.843,1.154.133.618-.664,1.614.057L29.419,43l-.057-.24a16.341,16.341,0,0,0,8.228,3.262c-.007-.344-.011-.642-.015-.889a15.6,15.6,0,0,1-8.842-4.04l3.164-3.16a11.183,11.183,0,0,0,2.559,1.718,3.085,3.085,0,0,1,.32-.83,10.287,10.287,0,0,1-2.256-1.516l3.169-3.164a5.758,5.758,0,0,0,1.69.941c-.009-.316-.013-.647-.02-.954a4.8,4.8,0,0,1-1.045-.616l.893-.893c-.314-.094-.629-.2-.943-.3l-.6.6a4.814,4.814,0,0,1-.76-1.124,10.521,10.521,0,0,1-1.561-.838,6.091,6.091,0,0,1-2.933-5.362,6.428,6.428,0,0,1,1.278-4.083L28.54,18.355A15.568,15.568,0,0,1,36.972,14.2c0-.307-.011-.6-.017-.889a16.438,16.438,0,0,0-9.038,4.419l-.534-.536c-.12.213-.261.486-.422.825l.335.335a16.421,16.421,0,0,0-4.464,11H18.361A20.853,20.853,0,0,1,24.136,15.2l1.42,1.42c.063,0,.133,0,.2-.007a2.172,2.172,0,0,0,.806-.235l-1.805-1.8a20.977,20.977,0,0,1,3.11-2.485,5.528,5.528,0,0,1,.222-.658,9.083,9.083,0,0,1,.682-.915,22.039,22.039,0,0,0-4.634,3.432l-3.16-3.156a26.238,26.238,0,0,1,15.66-7.326c-.02-.109-.033-.192-.033-.192-.044-.211-.089-.438-.135-.679a27.183,27.183,0,0,0,2.84,54.218m5.869-18.779-.007-.024.011.02,0,0M58.338,11.5a26.224,26.224,0,0,1,7.267,17.86H61.139a21.677,21.677,0,0,0-2.33-9.536l.039-.081.309.166.072-.237-.8-1.4-.941-1.309-1.111-.923c-.381-.477-.78-.941-1.2-1.383ZM52.648,17.22l1.074.046.255.311-.124.451,1.487.928.292-.035L57.537,21.1l.782-.277a20.832,20.832,0,0,1,1.938,8.528H55.788a16.331,16.331,0,0,0-.416-3.4l.207-.277.277-1.4-.209-1.5-.538-1.731-1.246-1.825.3.166.155-.157-1-.677-.07.222,1,1.429.568,1.174.405,1.161.126.784.209,1.313-.375.026s-.431-.8-.568-1.137l.2-.3-.381-.549v-.544l-.274-.346-.338.044c-.122-.226-.246-.446-.379-.664l.24.124.063-.068-.128-.281.294-.161-.133-.168-.433.168.159-.682-.257-.144-.229.54A16.569,16.569,0,0,0,51.4,18.436Zm-.893,10.471.8-.438.817-.126.183-.4.455-.272.174-.383.142-.658c.068.233.126.466.181.706l-.433,1.291-.02.436.634-.838a16.082,16.082,0,0,1,.22,2.348H50.988L50.9,29.02l.455-.366.089-.218.2-.144.527-.057L52.227,28Zm-5.364-3.075.4-.094-.02-.094-.4-.268.137-.841.475-.477a10.443,10.443,0,0,1,.834,1.076l-.17.518-.436-.309-.333.089.166.3h.163l-.181.455L46.9,24.8ZM48.1,39.453l-.967-.277-.29.111-.547-.422-.512-.183q.382-.274.738-.577l.795.56.605.324.3.3ZM47.61,22.218l3.164-3.16a16,16,0,0,1,1.951,2.624l-.394.109.02.708,1.187.747a15.079,15.079,0,0,1,.738,1.995l-.207.3-.427.272-.107.66-.294.161-.24.29-.25-.089-.433-.022.253-.34.181-.893.292-.183-.854-.817-.636.216-.144.6-.4.433-.418-.344-.146-.366.237-.15.133.244.194-.074-.085-.4-.279-.017-.017.161-.183.039-.98-1.146-.331-.255.124-.139.3-.1-.274-.107s-.346.076-.388.076l.2.248-.5-.009a11.18,11.18,0,0,0-.984-1.276M49.22,39.035l-.429-.429.329-.425.414-.838-.161-.237.274-.625-.033-.558-.163-.584-.39-.135-.144.327-.233-.063a10.674,10.674,0,0,0,.932-1.629l.405-.174.224-.3.107.124.274-.329-.218-.272.2-.05.366.144.69.017.416-.218,1.091-.287-.207-.366-.07-.44.588.261.216-.128-.109-.455-.716.268-.793-.161-.6-1.23H54.9A15.547,15.547,0,0,1,50.587,40.4l-.473-.47.2-.632-.366-1.376Zm.605,8.711.42-.9-.163-.4L50.7,45.9v-.329l-.527-.327.436-.871.656-.856-.656-.706h-.488l-.309-.494c.264-.22.523-.442.773-.675l3.16,3.16a21.043,21.043,0,0,1-3.918,2.942m3.937-4.173.346-.39-.329-1.723-.231-.089.142-.294-.745-.237-.146.621-.074.777-.155.144L51.21,41.021a16.414,16.414,0,0,0,4.569-10.782H60.25a20.878,20.878,0,0,1-5.88,13.944Zm1.228,1.235a21.761,21.761,0,0,0,6.143-14.569H65.6a26.211,26.211,0,0,1-7.452,17.725ZM28.106,40.477q-.487-.5-.926-1.045l.135-1.132-.473-1.085-.111-1.7-.529-1.03.111-.636-.638-1.222-.558-.281.229-.651-.235-.514.231-.588h.61l.218-.357h1.041l.163.307-.194,1.063-.126.183.39.856-.257.139-.181-.229-.076.089.176.505.309.592.142-.017.085-.527-.148-.2-.017-.357-.041-.745.216-1.311-.211-.353h.749a11.1,11.1,0,0,0,3.075,7.082Zm-2.953-8.731-.425.658h-.721l-.059-.041a15.446,15.446,0,0,1-.226-2.123H25.07l-.327,1.076Zm1.47-3.066.083-.891.527-.3.947.166.144.174a10.418,10.418,0,0,0-.144,1.531H27.107Zm4.532,3.339.224-.115.586.442-.255.209.656.433-.039-.468.348-.577.366.385.375.54-.675.15.307.612.473-.25-.063-.2.353-.237.207-.976a5.784,5.784,0,0,0,1.026,1.57L31.887,36.7a10.2,10.2,0,0,1-2.768-5.928l.647.688.608-.013ZM27.919,18.98l3.158,3.158A11.375,11.375,0,0,0,29.4,24.553l-.218-.013-.449.142-.15-.017-.475.442.6-.1.536-.137c-.035.07-.063.137-.1.2l-.468.294h-.224l-.7.527-.664-.054-.973,1.808.192.362-.527.586-.078.758h-2A15.575,15.575,0,0,1,27.919,18.98M23.84,42.809l1,.581.211.142-.727.727c-.34-.353-.669-.714-.982-1.089Zm-1-12.57c.015.436.054.865.1,1.289l-.547.124-.111.558-1.141,1.446.028,1.99L20,36.036l-.64,0a20.779,20.779,0,0,1-1-5.8Zm-4.41,5.778-.261-.052-.25-.281-1.252-.107.39.529-1.165-.222L16.2,35.6l-.285-.277-.838.362-.3.558.115,1.272.96,2.311.468.723.264.1-.732-1.387-.159-.7.163-.174-.1-.388.44.059.671,1.017.17.068-.017-.74.272.159.059.4.708.187.3-.213.1.074-.015.54.314.385.379.087.825,1.4.505.142.152-.656A22.3,22.3,0,0,0,23.7,44.885L20.545,48.04a26.224,26.224,0,0,1-7.529-17.8h4.469a21.754,21.754,0,0,0,.943,5.778m1.927-24.6,3.156,3.156a21.762,21.762,0,0,0-6.032,14.781H13.012a26.194,26.194,0,0,1,7.343-17.936M52.689,9.79l-.272-.436-.581-.292-.455.348.581.309.653.468Zm-2.707,12.6.02.344.775-.229.235-.473-.534-.7.283-.425.723.516.133-.107-.144-.1L51.31,20.9l.3-.17-.292-.383-.675.346L50.4,21.1l-.137.37.3.5-.109.24Zm-32.3,20.033.054-.2-.4-.871-.477-.179ZM35.948,25.642c0,.754.457,1.276,1.289,1.736,0,0-.007-.128-.009-.335l-.523-.52.277-.5.224-.068c-.017-.873-.035-1.851-.037-1.988l-.041,0a1.882,1.882,0,0,0-1.18,1.673" transform="translate(0 3.049)" fill="#007dc8"/>
      <path id="Trazado_38009" data-name="Trazado 38009" d="M18.8,23.019a5.68,5.68,0,0,1,3.236,3.543c.237-3.075-1.487-4.41-3.2-5.309L18.8,23.019" transform="translate(22.14 25.032)" fill="#007dc8"/>
      <path id="Trazado_38010" data-name="Trazado 38010" d="M33.309,11.6c0-2.794-2.028-5.9-6.993-6.988A11.24,11.24,0,0,0,24.8,4.439c-.013.42-.035,1.383-.035,1.383-.007.3-.03,1.424-.037,1.662a8.071,8.071,0,0,1,.954.137c2.888.688,3.92,2.343,3.92,3.981,0,2.657-2.269,3.654-5.055,4.406-.3.089-.614.168-.926.244-.845.211-1.716.412-2.576.647-.307.083-.614.17-.915.259-3.092.943-5.747,2.433-5.747,6.252,0,3.781,3.029,5.194,5.991,6.1q-.033-1.627-.065-3.275c-1.3-.614-2.228-1.422-2.228-2.777,0-1.328.841-2.128,2.119-2.707.287-.126.592-.246.915-.353.736-.253,1.566-.464,2.435-.677.3-.072.612-.148.921-.224,4.166-1,8.835-2.311,8.835-7.9" transform="translate(16.943 5.229)" fill="#007dc8"/>
      <path id="Trazado_38011" data-name="Trazado 38011" d="M16.2,25.731c.009,1.527,1.13,2.361,2.256,2.986,0-.255-.05-2.62-.05-2.663.024-.47.481-.751.849-.926a18.1,18.1,0,0,1,1.79-.686c.333-.115.623-.229.939-.322,2.261-.682,4.876-1.548,4.876-4.3s-2.243-3.879-4.693-4.726c-.02.882-.041,2.156-.061,3.042,1.037.407,1.723.9,1.723,1.683,0,.987-1.052,1.553-1.8,1.842-.311.12-.786.277-.915.318-.6.187-1.248.4-1.851.623a8.458,8.458,0,0,0-.915.4c-1.061.544-2.156,1.335-2.149,2.731" transform="translate(19.082 17.776)" fill="#007dc8"/>
      <path id="Trazado_38012" data-name="Trazado 38012" d="M22.99,4.638a18.093,18.093,0,0,0-2.722,1.111A6.728,6.728,0,0,0,16.5,7.672a19.806,19.806,0,0,0-1.3,1.686c-.427.616-.446,1.607-.764,2.139a1.782,1.782,0,0,0-.344,1.213l.013.02a2.036,2.036,0,0,1-.52.971,1.993,1.993,0,0,1-1.845.7,2.021,2.021,0,0,0,1.542-.128,11.581,11.581,0,0,0-.342,1.285,6.209,6.209,0,0,1,1.6-2.406,3.258,3.258,0,0,0,2.158-.647,16.918,16.918,0,0,0,3.972-2.851,5.316,5.316,0,0,1,2.4-1.812c-.026-1.211-.048-2.289-.074-3.2M17.271,9.764l-.7.152.834-1.37.984.03Z" transform="translate(13.823 5.463)" fill="#007dc8"/>
      <path id="Trazado_38013" data-name="Trazado 38013" d="M18.837,19.981c-.128.044-.468.192-.682.268s-.516.2-.516.272c0,.026.218,11.849.218,12.111,0,2.437,1.244,2.45,1.244,0,0-.174.246-12.816.246-12.816s-.3.089-.51.166" transform="translate(20.775 23.338)" fill="#007dc8"/>
      <path id="Trazado_38014" data-name="Trazado 38014" d="M17.735,25.406c.388-.135.771-.255,1.132-.366.268-.085.518-.161.747-.237.015-.74.226-11.035.266-12.905a24.441,24.441,0,0,0-2.393.688c.028,1.4.229,11.692.248,12.821" transform="translate(20.596 14.012)" fill="#007dc8"/>
      <path id="Trazado_38015" data-name="Trazado 38015" d="M19.306,0c-3.484,0-2,5.168-1.727,6.849.011.081.281,11.671.335,14.334.529-.142,1.056-.268,1.566-.4.364-.089.714-.174,1.05-.259.054-2.565.309-13.628.32-13.7C21.056,5.028,22.881,0,19.306,0" transform="translate(20.058 0)" fill="#007dc8"/>
      <path id="Trazado_38016" data-name="Trazado 38016" d="M45.037,6.24c3.3,0,6.32,2.825,6.32,9.395s-3.023,9.4-6.32,9.4-6.318-2.825-6.318-9.4S41.742,6.24,45.037,6.24m0,16.231c1.845,0,3.319-1.808,3.319-6.836s-1.474-6.829-3.319-6.829-3.317,1.808-3.317,6.829,1.474,6.836,3.317,6.836" transform="translate(45.602 7.35)" fill="#007dc8"/>
      <path id="Trazado_38017" data-name="Trazado 38017" d="M45.5,10.9a21.232,21.232,0,0,0-.091-2.223h2.548c.022.808.089,1.649.089,2.457h.046c.342-1.045,1.226-2.67,2.979-2.67a2.624,2.624,0,0,1,.477.081v3.036a2.53,2.53,0,0,0-.8-.131c-1.156,0-2.428.812-2.428,3.325v7.385H45.5Z" transform="translate(53.478 9.968)" fill="#007dc8"/>
      <path id="Trazado_38018" data-name="Trazado 38018" d="M49.457,24.252A6.775,6.775,0,0,0,52.911,25.4C55.57,25.4,56,23.285,56,21.164V19.879h-.046a3.245,3.245,0,0,1-3.09,2.28c-1.64,0-4.094-1.259-4.094-6.7,0-3.717,1.161-6.993,4.231-6.993,1.7,0,2.5,1.126,3.092,2.3h.087c0-.706.07-1.385.094-2.093h2.546c-.046.708-.094,1.413-.094,2.119v9.948c0,4.216-1.113,7.228-5.41,7.228a10.407,10.407,0,0,1-4.022-.838Zm4.068-4.475c1.771,0,2.478-1.468,2.478-4.53,0-2.829-.932-4.347-2.274-4.321-1.477.024-2.047,1.594-2.047,4.347,0,3.164.889,4.5,1.842,4.5" transform="translate(57.443 9.968)" fill="#007dc8"/>
      <path id="Trazado_38019" data-name="Trazado 38019" d="M55.486,9.458a7.327,7.327,0,0,1,3.7-1c3.637,0,4.48,2.047,4.48,5.423v5.891a19.314,19.314,0,0,0,.159,2.382H61.281a7.787,7.787,0,0,1-.159-1.834h-.041a3.7,3.7,0,0,1-3.275,2.043c-1.816,0-3.5-1.442-3.5-3.955,0-3.667,2.589-4.582,6.157-4.582h.573v-.5c0-1.333-.573-2.565-2.184-2.565a5,5,0,0,0-3.206,1.309Zm5.549,6.1h-.253c-2.409,0-3.839.579-3.839,2.544a1.833,1.833,0,0,0,1.792,2.067c1.683,0,2.3-1.442,2.3-3.848Z" transform="translate(63.96 9.968)" fill="#007dc8"/>
      <path id="Trazado_38020" data-name="Trazado 38020" d="M59.917,10.9a21.909,21.909,0,0,0-.089-2.223h2.635c.024.679.091,1.385.091,2.067H62.6a3.462,3.462,0,0,1,3.116-2.28c2.659,0,3.454,2.28,3.454,5v8.694H66.35v-8.09c0-2.067-.455-2.936-1.614-2.936-1.477,0-2,1.444-2,3.169v7.857H59.917Z" transform="translate(70.463 9.968)" fill="#007dc8"/>
      <path id="Trazado_38021" data-name="Trazado 38021" d="M65.454,5.928h2.909V9.123H65.454Zm.046,5.734h2.82V25.145H65.5Z" transform="translate(77.09 6.982)" fill="#007dc8"/>
      <path id="Trazado_38022" data-name="Trazado 38022" d="M67.834,19.241l5-8.221H67.993V8.561h7.661v2.772L70.746,19.58h5.065v2.463H67.834Z" transform="translate(79.893 10.083)" fill="#007dc8"/>
      <path id="Trazado_38023" data-name="Trazado 38023" d="M73.338,9.458a7.339,7.339,0,0,1,3.7-1c3.641,0,4.482,2.047,4.482,5.423v5.891a19.394,19.394,0,0,0,.157,2.382H79.133a7.909,7.909,0,0,1-.157-1.834H78.93a3.692,3.692,0,0,1-3.273,2.043c-1.818,0-3.5-1.442-3.5-3.955,0-3.667,2.594-4.582,6.159-4.582h.571v-.5c0-1.333-.571-2.565-2.184-2.565a5,5,0,0,0-3.2,1.309Zm5.547,6.1h-.253c-2.409,0-3.839.579-3.839,2.544a1.835,1.835,0,0,0,1.794,2.067c1.683,0,2.3-1.442,2.3-3.848Z" transform="translate(84.982 9.968)" fill="#007dc8"/>
      <path id="Trazado_38024" data-name="Trazado 38024" d="M85.848,21.819a7.142,7.142,0,0,1-2.772.549c-3.866,0-5.5-3.119-5.5-6.938,0-3.848,1.727-6.967,5.664-6.967a6.775,6.775,0,0,1,2.452.553l-.159,2.565a4.057,4.057,0,0,0-1.977-.656c-2.136,0-3.071,1.651-3.071,4.53,0,2.513,1.05,4.449,3.206,4.449a4.074,4.074,0,0,0,2-.656Z" transform="translate(91.362 9.968)" fill="#007dc8"/>
      <path id="Trazado_38025" data-name="Trazado 38025" d="M82.333,5.928H85.24V9.123H82.333Zm.044,5.734H85.2V25.145h-2.82Z" transform="translate(96.969 6.982)" fill="#007dc8"/>
      <path id="Trazado_38026" data-name="Trazado 38026" d="M90.017,11.194c2.387,0,5.14,1.442,5.14,6.938,0,5.658-2.753,6.967-5.14,6.967s-5.159-1.309-5.159-6.967c0-5.5,2.772-6.938,5.159-6.938m0,11.6c1.816,0,2.228-2.406,2.228-4.66S91.833,13.5,90.017,13.5s-2.25,2.382-2.25,4.632.431,4.66,2.25,4.66M90.13,6.142h2.637L90.448,9.914H88.676Z" transform="translate(99.943 7.234)" fill="#007dc8"/>
      <path id="Trazado_38027" data-name="Trazado 38027" d="M90.721,10.9a21.842,21.842,0,0,0-.091-2.223h2.637c.024.679.094,1.385.094,2.067H93.4a3.456,3.456,0,0,1,3.116-2.28c2.659,0,3.456,2.28,3.456,5v8.694H97.157v-8.09c0-2.067-.457-2.936-1.616-2.936-1.479,0-2,1.444-2,3.169v7.857h-2.82Z" transform="translate(106.741 9.968)" fill="#007dc8"/>
      <path id="Trazado_38028" data-name="Trazado 38028" d="M51.858,21.1h-.046l-3.979,15.24H45.764l-3.8-15.24h-.046v15.24H39.288V18.066H43.63L46.9,31.707h.044l3.341-13.642h4.207V36.344H51.858Z" transform="translate(46.272 21.278)" fill="#007dc8"/>
      <path id="Trazado_38029" data-name="Trazado 38029" d="M56.688,31.528a20.7,20.7,0,0,0,.091,2.223H54.142c-.022-.684-.091-1.385-.091-2.067l-.068-.028.024.028c-.544.991-1.274,2.276-3.116,2.276-2.659,0-3.454-2.276-3.454-5V20.265h2.818V28.36c0,2.067.5,2.931,1.681,2.931,1.5,0,1.932-1.57,1.932-3.3V20.265h2.82Z" transform="translate(55.87 23.868)" fill="#007dc8"/>
      <path id="Trazado_38030" data-name="Trazado 38030" d="M52.962,22.6a22.13,22.13,0,0,0-.087-2.228h2.633c.026.684.094,1.389.094,2.071h.044a3.455,3.455,0,0,1,3.114-2.276c2.661,0,3.456,2.276,3.456,5v8.694H59.4v-8.09c0-2.071-.453-2.936-1.614-2.936-1.477,0-2,1.444-2,3.169v7.857h-2.82Z" transform="translate(62.274 23.758)" fill="#007dc8"/>
      <path id="Trazado_38031" data-name="Trazado 38031" d="M68.184,17.441V34.774a19.621,19.621,0,0,0,.091,2.306H65.638a20.569,20.569,0,0,1-.094-2.1h-.065a3.2,3.2,0,0,1-3.114,2.306c-2.909,0-4.116-3.195-4.116-6.938,0-4.4,1.524-6.962,4.046-6.962a3.162,3.162,0,0,1,3.025,2.143h.044v-8.09ZM63.138,34.907c1.659,0,2.226-2.067,2.226-4.61,0-2.615-.636-4.525-2.18-4.525-1.568,0-2.112,1.751-2.112,4.449,0,3.116.429,4.687,2.067,4.687" transform="translate(68.604 20.542)" fill="#007dc8"/>
      <path id="Trazado_38032" data-name="Trazado 38032" d="M64.168,17.635h2.909v3.19H64.168Zm.044,5.73h2.82V36.852h-2.82Z" transform="translate(75.575 20.77)" fill="#007dc8"/>
      <path id="Trazado_38033" data-name="Trazado 38033" d="M67.741,21.163a7.347,7.347,0,0,1,3.7-.991c3.639,0,4.48,2.043,4.48,5.418v5.891a18.831,18.831,0,0,0,.159,2.382H73.538a7.77,7.77,0,0,1-.157-1.834h-.048a3.692,3.692,0,0,1-3.273,2.043,3.62,3.62,0,0,1-3.5-3.953c0-3.665,2.594-4.584,6.159-4.584h.571v-.5c0-1.337-.571-2.565-2.182-2.565A4.985,4.985,0,0,0,67.9,23.783Zm5.547,6.1h-.25c-2.411,0-3.842.579-3.842,2.539a1.836,1.836,0,0,0,1.794,2.071c1.686,0,2.3-1.442,2.3-3.848Z" transform="translate(78.39 23.758)" fill="#007dc8"/>
      <rect id="Rectángulo_3823" data-name="Rectángulo 3823" width="2.818" height="19.639" transform="translate(157.337 37.985)" fill="#007dc8"/>
      <path id="Trazado_38034" data-name="Trazado 38034" d="M87.462,17.441V34.774a19.619,19.619,0,0,0,.091,2.306H84.916c-.044-.4-.091-1.178-.091-2.1h-.068a3.192,3.192,0,0,1-3.112,2.306c-2.912,0-4.116-3.195-4.116-6.938,0-4.4,1.52-6.962,4.046-6.962A3.163,3.163,0,0,1,84.6,25.531h.044v-8.09ZM82.416,34.907c1.662,0,2.226-2.067,2.226-4.61,0-2.615-.636-4.525-2.18-4.525-1.57,0-2.115,1.751-2.115,4.449,0,3.116.429,4.687,2.069,4.687" transform="translate(91.311 20.542)" fill="#007dc8"/>
      <path id="Trazado_38035" data-name="Trazado 38035" d="M92.106,33.208a7.79,7.79,0,0,1-3.5.865c-3.774,0-5.412-3.119-5.412-6.755,0-4.033,1.84-7.145,4.819-7.145,2.522,0,4.682,1.7,4.682,7.2V28H85.926c0,2.3.795,3.693,2.977,3.693a4.241,4.241,0,0,0,3.066-1.052Zm-2.134-7.252c0-2.387-.682-3.585-1.956-3.585-1.477,0-2.091,1.8-2.091,3.585Z" transform="translate(97.987 23.758)" fill="#007dc8"/>
      <rect id="Rectángulo_3824" data-name="Rectángulo 3824" width="2.818" height="19.89" transform="translate(199.322 37.758)" fill="#007dc8"/>
      <path id="Trazado_38036" data-name="Trazado 38036" d="M95.078,21.163a7.344,7.344,0,0,1,3.7-.991c3.639,0,4.482,2.043,4.482,5.418v5.891a19.775,19.775,0,0,0,.157,2.382h-2.544a7.653,7.653,0,0,1-.159-1.834h-.046A3.7,3.7,0,0,1,97.4,34.073a3.62,3.62,0,0,1-3.5-3.953c0-3.665,2.594-4.584,6.161-4.584h.566v-.5c0-1.337-.566-2.565-2.18-2.565a4.975,4.975,0,0,0-3.206,1.309Zm5.545,6.1h-.246c-2.413,0-3.846.579-3.846,2.539a1.839,1.839,0,0,0,1.8,2.071c1.681,0,2.293-1.442,2.293-3.848Z" transform="translate(110.586 23.758)" fill="#007dc8"/>
      <path id="Trazado_38037" data-name="Trazado 38037" d="M102.525,32.95a5.933,5.933,0,0,0,3.365,1.124,2.352,2.352,0,0,0,2.406-2.642c0-1.311-.658-1.888-2.067-2.779l-1.477-.939a5.25,5.25,0,0,1-2.589-4.793,4.733,4.733,0,0,1,5-4.974,9.145,9.145,0,0,1,3.317.656l-.133,2.8a6.781,6.781,0,0,0-2.977-.786,2.008,2.008,0,0,0-2.208,2.147c0,1.361.8,1.888,1.681,2.463l1.707,1.1a5.061,5.061,0,0,1,2.748,4.926c0,3.717-2.3,5.495-5.318,5.495a6.418,6.418,0,0,1-3.613-.812Z" transform="translate(120.324 21.138)" fill="#007dc8"/>
      <path id="Trazado_38038" data-name="Trazado 38038" d="M108.415,21.163a7.37,7.37,0,0,1,3.707-.991c3.637,0,4.48,2.043,4.48,5.418v5.891a19.253,19.253,0,0,0,.159,2.382h-2.544a7.426,7.426,0,0,1-.163-1.834h-.044a3.693,3.693,0,0,1-3.275,2.043c-1.816,0-3.5-1.442-3.5-3.953,0-3.665,2.592-4.584,6.161-4.584h.568v-.5c0-1.337-.568-2.565-2.182-2.565a4.992,4.992,0,0,0-3.208,1.309Zm5.549,6.1h-.25c-2.411,0-3.844.579-3.844,2.539a1.838,1.838,0,0,0,1.794,2.071c1.686,0,2.3-1.442,2.3-3.848Z" transform="translate(126.298 23.758)" fill="#007dc8"/>
      <rect id="Rectángulo_3825" data-name="Rectángulo 3825" width="2.818" height="19.639" transform="translate(245.922 37.985)" fill="#007dc8"/>
      <path id="Trazado_38039" data-name="Trazado 38039" d="M124.826,31.528a21.351,21.351,0,0,0,.089,2.223H122.28c-.026-.684-.091-1.385-.091-2.067l-.065-.028.022.028c-.547.991-1.274,2.276-3.116,2.276-2.659,0-3.454-2.276-3.454-5V20.265h2.82V28.36c0,2.067.5,2.931,1.679,2.931,1.5,0,1.934-1.57,1.934-3.3V20.265h2.818Z" transform="translate(136.12 23.868)" fill="#007dc8"/>
      <path id="Trazado_38040" data-name="Trazado 38040" d="M130.841,17.441V34.774a20.639,20.639,0,0,0,.091,2.306H128.3a20.73,20.73,0,0,1-.091-2.1h-.07a3.19,3.19,0,0,1-3.112,2.306c-2.909,0-4.116-3.195-4.116-6.938,0-4.4,1.524-6.962,4.046-6.962a3.162,3.162,0,0,1,3.025,2.143h.041v-8.09Zm-5.046,17.466c1.662,0,2.226-2.067,2.226-4.61,0-2.615-.636-4.525-2.18-4.525-1.566,0-2.112,1.751-2.112,4.449,0,3.116.431,4.687,2.067,4.687" transform="translate(142.401 20.542)" fill="#007dc8"/>
    </g>
  </g>
</svg>
