<svg id="Grupo_15936" data-name="Grupo 15936" xmlns="http://www.w3.org/2000/svg" xmlns:xlink="http://www.w3.org/1999/xlink" width="343.253" height="270.372" viewBox="0 0 343.253 270.372">
  <defs>
    <clipPath id="clip-path">
      <rect id="Rectángulo_3877" data-name="Rectángulo 3877" width="343.253" height="270.371" fill="none"/>
    </clipPath>
    <clipPath id="clip-path-3">
      <rect id="Rectángulo_3870" data-name="Rectángulo 3870" width="14.83" height="20.887" fill="none"/>
    </clipPath>
    <clipPath id="clip-path-4">
      <rect id="Rectángulo_3871" data-name="Rectángulo 3871" width="17.744" height="17.641" fill="none"/>
    </clipPath>
    <clipPath id="clip-path-5">
      <rect id="Rectángulo_3875" data-name="Rectángulo 3875" width="21.658" height="18.293" fill="none"/>
    </clipPath>
  </defs>
  <g id="Grupo_15935" data-name="Grupo 15935" clip-path="url(#clip-path)">
    <g id="Grupo_15934" data-name="Grupo 15934">
      <g id="Grupo_15933" data-name="Grupo 15933" clip-path="url(#clip-path)">
        <path id="Trazado_39636" data-name="Trazado 39636" d="M257.531,249.378h-103.8a14.862,14.862,0,1,1,0-29.724h103.8a14.862,14.862,0,0,1,0,29.724" transform="translate(-64.161 -101.486)" fill="#eae699"/>
        <path id="Trazado_39637" data-name="Trazado 39637" d="M177.851,67.692h0a15.623,15.623,0,0,0,0-31.23H71.629A13.818,13.818,0,0,0,58.034,50.491,16.557,16.557,0,0,1,41.743,67.3H39.007a17.243,17.243,0,0,0,0,34.469A16.558,16.558,0,0,1,55.3,118.585v3.205a13.817,13.817,0,0,0,13.595,14.029H180a16.973,16.973,0,0,0,16.7-17.234v-.017a16.957,16.957,0,0,0-16.684-17.218c-9.006,0-9.975-33.658-2.163-33.658" transform="translate(-10.306 -16.846)" fill="#eae699"/>
        <path id="Trazado_39638" data-name="Trazado 39638" d="M320.525,117.647V115.32c0-8.4-6.11-15.218-13.646-15.218-8.063,0-14.6-7.288-14.6-16.28s6.536-16.279,14.6-16.279H409.365c7.244,0,13.116,6.548,13.116,14.626,0,9.68,7.037,17.528,15.717,17.528h2.64c8.9,0,16.113,8.044,16.113,17.967h0c0,9.923-7.214,17.967-16.113,17.967-8.681,0-15.718,7.847-15.718,17.527V156.5c0,8.078-5.873,14.626-13.116,14.626h-107.2c-8.9,0-16.113-8.044-16.113-17.968v-.017c0-9.914,7.207-17.95,16.1-17.95,8.69,0,15.734-7.855,15.734-17.545" transform="translate(-133.385 -31.207)" fill="#eae699"/>
        <path id="Trazado_39639" data-name="Trazado 39639" d="M52.491,80.324C49.628,77.31,44.845,77.4,44.81,77.39a8.887,8.887,0,0,0-5.354,1.745,6.655,6.655,0,0,0-1.236,1.188l1.092.729a5.148,5.148,0,0,1,2.2-2.085,7.258,7.258,0,0,1,3.41-.832,9.547,9.547,0,0,1,6.619,2.547,3.456,3.456,0,0,0,.948-.359" transform="translate(-17.659 -35.756)" fill="#2ba14c"/>
        <path id="Trazado_39640" data-name="Trazado 39640" d="M6.984,117.6a11.328,11.328,0,0,0,14.88-5.927,11.487,11.487,0,0,0-1.682-12.132C23.56,90.683,23.476,82.65,19.775,81c-1.729-.769-3.546.048-4.773.782a20.112,20.112,0,0,0-5.509,5.277,62.2,62.2,0,0,0-5.007,7.724,46.9,46.9,0,0,0-3.72,8.028,13.839,13.839,0,0,0-.511,7.111,9.953,9.953,0,0,0,3.4,5.637A14.1,14.1,0,0,0,6.984,117.6" transform="translate(0 -37.282)" fill="#352e73"/>
        <path id="Trazado_39641" data-name="Trazado 39641" d="M27.264,91.74S23.2,104.2,23.2,105.566s3.442,2.555,2.608,7.511-3.905,6.824-7.1,6.047-4.2-5.005-1.7-5.267,4.925.417,5.66-2.349-1.2-5.976-1.2-5.976Z" transform="translate(-7.213 -42.387)" fill="#7271b3"/>
        <path id="Trazado_39642" data-name="Trazado 39642" d="M31.42,86.636l-.164-1.025a.271.271,0,0,0-.336-.192l-.936.3a.264.264,0,0,1-.338-.224l.028-.908a.264.264,0,0,0-.362-.214l-1.385.644-.055.027-.347-1.69a.273.273,0,0,0-.341-.182l-1.222.428a.269.269,0,0,1-.344-.2l-.14-1.4a.255.255,0,0,0-.2-.2l-.811-.215c-.158-.042-.246-.2-.169-.308a6.752,6.752,0,0,1,6.706-2.563l.025.006a7.728,7.728,0,0,1,1.447.594c3.939,2.135,2.69,6.719,2.073,8.383-.067.18-.387.125-.441-.075l-.063-.235a.264.264,0,0,0-.405-.131.263.263,0,0,1-.4-.108l-.224-.551a.277.277,0,0,0-.341-.145l-.91.374a.27.27,0,0,1-.352-.187" transform="translate(-11.214 -36.312)" fill="#2ba14c"/>
        <path id="Trazado_39643" data-name="Trazado 39643" d="M110.473,40.836,85.636,20.4a16.083,16.083,0,1,0,24.838,20.439" transform="translate(-37.873 -9.424)" fill="#914817"/>
        <path id="Trazado_39644" data-name="Trazado 39644" d="M105.65,53.87l-1.7-10.276-6.329,7.69a12.4,12.4,0,0,0,8.03,2.585" transform="translate(-45.103 -20.142)" fill="#ff7a03"/>
        <path id="Trazado_39645" data-name="Trazado 39645" d="M112.782,43.872l1.647,9.944a12.543,12.543,0,0,0,6.488-3.25Z" transform="translate(-52.109 -20.27)" fill="#ff7a03"/>
        <path id="Trazado_39646" data-name="Trazado 39646" d="M98.642,41.069c-3.6.057-6.761.147-9.941.434a12.394,12.394,0,0,0,3.478,7.42Z" transform="translate(-40.982 -18.975)" fill="#ff7a03"/>
        <path id="Trazado_39647" data-name="Trazado 39647" d="M88.585,33.182c2.924-.259,5.817-.358,9.042-.416l-7.112-5.853a12.582,12.582,0,0,0-1.93,6.268" transform="translate(-40.929 -12.435)" fill="#ff7a03"/>
        <path id="Trazado_39648" data-name="Trazado 39648" d="M116.039,50.192a.748.748,0,0,0,.429-.96c-.126-.422-.933-1.414-1.287-1.279s-.153,1.25-.027,1.671a.748.748,0,0,0,.885.567" transform="translate(-53.125 -22.15)" fill="#fcc13f"/>
        <path id="Trazado_39649" data-name="Trazado 39649" d="M122.294,55.319a.747.747,0,0,0-.032-1.051c-.3-.324-1.455-.866-1.715-.59s.406,1.192.7,1.516a.747.747,0,0,0,1.043.125" transform="translate(-55.669 -24.766)" fill="#fcc13f"/>
        <path id="Trazado_39650" data-name="Trazado 39650" d="M106.759,60.043a.748.748,0,0,0,.71-.775c.014-.44-.438-1.637-.816-1.62s-.541,1.137-.555,1.576a.748.748,0,0,0,.661.818" transform="translate(-49.02 -26.635)" fill="#fcc13f"/>
        <path id="Trazado_39651" data-name="Trazado 39651" d="M104.074,54.309a.746.746,0,0,0,1.042-.132c.3-.327.725-1.531.426-1.763s-1.148.518-1.443.844a.747.747,0,0,0-.025,1.051" transform="translate(-47.991 -24.197)" fill="#fcc13f"/>
        <path id="Trazado_39652" data-name="Trazado 39652" d="M95.364,49.19a.747.747,0,0,0,1.043-.132c.3-.327.725-1.531.426-1.763s-1.147.518-1.443.844a.748.748,0,0,0-.025,1.051" transform="translate(-43.967 -21.832)" fill="#fcc13f"/>
        <path id="Trazado_39653" data-name="Trazado 39653" d="M99.193,44.4a.747.747,0,0,0,.932.485c.429-.1,1.467-.846,1.353-1.207s-1.238-.228-1.667-.127a.748.748,0,0,0-.619.85" transform="translate(-45.823 -20.072)" fill="#fcc13f"/>
        <path id="Trazado_39654" data-name="Trazado 39654" d="M91.455,35.218a.748.748,0,0,0,.677.8c.434.07,1.679-.224,1.711-.6s-1.058-.682-1.492-.752a.747.747,0,0,0-.9.55" transform="translate(-42.252 -16.012)" fill="#fcc13f"/>
        <path id="Trazado_39655" data-name="Trazado 39655" d="M96.058,33.619a.747.747,0,0,0,.234,1.025c.353.261,1.594.57,1.8.25s-.628-1.092-.982-1.352a.747.747,0,0,0-1.048.078" transform="translate(-44.327 -15.416)" fill="#fcc13f"/>
        <path id="Trazado_39656" data-name="Trazado 39656" d="M143.7,208.88c1.715.548,2.494,2.615,1.741,4.616s-2.751,3.178-4.465,2.63-2.494-2.616-1.742-4.616,2.752-3.179,4.466-2.63" transform="translate(-64.197 -96.446)" fill="#2ba14c"/>
        <path id="Trazado_39657" data-name="Trazado 39657" d="M146.222,209.62a.863.863,0,1,1-.98.815.9.9,0,0,1,.98-.815" transform="translate(-67.106 -96.85)" fill="#8cd334"/>
        <path id="Trazado_39658" data-name="Trazado 39658" d="M141.234,1.491l.168-.09a1.124,1.124,0,0,1,1.157.045s0,.008.011,0a1.113,1.113,0,0,0,1.011.142l.178-.055A1.178,1.178,0,0,0,144.473.8c0-.008,0-.011,0-.019a1.1,1.1,0,0,1,.888-.738l.189-.032a1.085,1.085,0,0,1,1.069.437l0,.008a1.163,1.163,0,0,0,.906.483h.187A1.134,1.134,0,0,0,148.636.5c0-.011,0-.011.011-.016a1.1,1.1,0,0,1,1.088-.4l.187.038a1.106,1.106,0,0,1,.856.777l.008.015a1.143,1.143,0,0,0,.681.761l.173.066a1.146,1.146,0,0,0,1.016-.107l.016-.008a1.109,1.109,0,0,1,1.155.006l.158.093a1.089,1.089,0,0,1,.543,1.022c0,.008,0,.008,0,.019a1.122,1.122,0,0,0,.381.94l.147.129a1.135,1.135,0,0,0,.986.244c.012,0,.012,0,.019,0a1.106,1.106,0,0,1,1.088.4l.116.145a1.1,1.1,0,0,1,.157,1.148l0,.011a1.148,1.148,0,0,0,.029,1.019l.1.165a1.127,1.127,0,0,0,.847.574l.012,0a1.1,1.1,0,0,1,.889.748l.063.174a1.132,1.132,0,0,1-.245,1.134l-.016.008a1.147,1.147,0,0,0-.31.973l.027.182a1.142,1.142,0,0,0,.6.833l.011,0a1.107,1.107,0,0,1,.582,1l-.007.19a1.088,1.088,0,0,1-.614.976l-.016.008a1.158,1.158,0,0,0-.626.805l-.038.188a1.117,1.117,0,0,0,.285.981l0,.008a1.1,1.1,0,0,1,.2,1.143l-.066.173a1.106,1.106,0,0,1-.919.715l-.008,0a1.109,1.109,0,0,0-.866.539l-.1.161a1.132,1.132,0,0,0-.073,1.014l.009.016a1.113,1.113,0,0,1-.2,1.14l-.122.143a1.109,1.109,0,0,1-1.111.355l-.012,0a1.149,1.149,0,0,0-1,.215l-.145.117a1.147,1.147,0,0,0-.421.932l.009.016a1.126,1.126,0,0,1-.578,1.007l-.169.09a1.154,1.154,0,0,1-.6.139l-1-1.874L142.57,4.415,141.077,1.6a.719.719,0,0,1,.157-.113" transform="translate(-65.182 0)" fill="#2ba14c"/>
        <path id="Trazado_39659" data-name="Trazado 39659" d="M143.853,7.311a9.223,9.223,0,0,1,12.421,3.973,9.22,9.22,0,0,1-3.642,12.5Z" transform="translate(-66.464 -2.896)" fill="#8cd334"/>
        <path id="Trazado_39660" data-name="Trazado 39660" d="M161.449,31.234a.918.918,0,1,1-1.337,1.258c-.348-.37-1.214-2.034-.845-2.381s1.834.754,2.182,1.123" transform="translate(-73.544 -13.881)" fill="#fee2bf"/>
        <path id="Trazado_39661" data-name="Trazado 39661" d="M162.7,24.3a.918.918,0,0,1,.147,1.83c-.505.041-2.346-.322-2.387-.827s1.735-.962,2.24-1" transform="translate(-74.136 -11.227)" fill="#fee2bf"/>
        <path id="Trazado_39662" data-name="Trazado 39662" d="M160.7,16.264a.918.918,0,0,1,1.206,1.384c-.382.333-2.078,1.136-2.411.754s.823-1.8,1.2-2.138" transform="translate(-73.666 -7.41)" fill="#fee2bf"/>
        <path id="Trazado_39663" data-name="Trazado 39663" d="M154.654,11.373a.918.918,0,0,1,1.664.775c-.215.459-1.438,1.882-1.9,1.668s.019-1.984.233-2.443" transform="translate(-71.258 -5.01)" fill="#fee2bf"/>
        <path id="Trazado_39664" data-name="Trazado 39664" d="M147.457,9.985a.918.918,0,0,1,1.829-.157c.043.5-.309,2.348-.814,2.392s-.971-1.73-1.014-2.235" transform="translate(-68.128 -4.153)" fill="#fee2bf"/>
        <path id="Trazado_39665" data-name="Trazado 39665" d="M530.438,19.094a13.22,13.22,0,0,0-18.839.316,13.577,13.577,0,0,0,.313,19.048,13.218,13.218,0,0,0,18.838-.316,13.578,13.578,0,0,0-.312-19.049m-12.82,13.4a5.214,5.214,0,0,1-.12-7.314,5.075,5.075,0,0,1,7.234-.121,5.213,5.213,0,0,1,.12,7.314,5.076,5.076,0,0,1-7.234.122" transform="translate(-234.642 -7.072)" fill="#914817"/>
        <path id="Trazado_39666" data-name="Trazado 39666" d="M530.193,23.217h0a.687.687,0,0,1-.016-.965l.938-.98a.669.669,0,0,1,.954-.016.688.688,0,0,1,.016.964l-.939.981a.668.668,0,0,1-.953.016" transform="translate(-244.869 -9.732)" fill="#fae0b2"/>
        <path id="Trazado_39667" data-name="Trazado 39667" d="M544.958,48.1h0a.67.67,0,0,1-.943-.15l-.794-1.1a.686.686,0,0,1,.148-.953.67.67,0,0,1,.942.15l.795,1.1a.687.687,0,0,1-.148.953" transform="translate(-250.924 -21.145)" fill="#fae0b2"/>
        <path id="Trazado_39668" data-name="Trazado 39668" d="M521.969,27.824l-.024.12a.614.614,0,0,1-.722.488l-.951-.19a.622.622,0,0,1-.484-.73l.024-.119a.614.614,0,0,1,.722-.488l.952.19a.621.621,0,0,1,.483.729" transform="translate(-240.152 -12.425)" fill="#fae0b2"/>
        <path id="Trazado_39669" data-name="Trazado 39669" d="M535.09,55.848l-.023.12a.615.615,0,0,1-.722.488l-.952-.19a.622.622,0,0,1-.484-.73l.024-.119a.615.615,0,0,1,.722-.489l.952.19a.621.621,0,0,1,.483.73" transform="translate(-246.214 -25.373)" fill="#fae0b2"/>
        <path id="Trazado_39670" data-name="Trazado 39670" d="M541.446,27.341l-.095.076a.609.609,0,0,1-.863-.1l-.6-.767a.626.626,0,0,1,.1-.873l.095-.076a.61.61,0,0,1,.864.1l.6.767a.626.626,0,0,1-.1.873" transform="translate(-249.38 -11.766)" fill="#fae0b2"/>
        <path id="Trazado_39671" data-name="Trazado 39671" d="M527.014,55.73h0a.67.67,0,0,1-.948-.108l-.529-.672a.687.687,0,0,1,.107-.958.67.67,0,0,1,.948.108l.529.671a.687.687,0,0,1-.107.959" transform="translate(-242.745 -24.877)" fill="#fae0b2"/>
        <path id="Trazado_39672" data-name="Trazado 39672" d="M548.73,36.939l.008.122a.619.619,0,0,1-.579.655l-.968.056a.617.617,0,0,1-.648-.585l-.007-.122a.618.618,0,0,1,.578-.655l.969-.056a.616.616,0,0,1,.648.584" transform="translate(-252.514 -16.797)" fill="#fae0b2"/>
        <path id="Trazado_39673" data-name="Trazado 39673" d="M518.2,48l.007.122a.619.619,0,0,1-.578.655l-.968.056a.616.616,0,0,1-.648-.584L516,48.128a.618.618,0,0,1,.578-.655l.969-.056A.617.617,0,0,1,518.2,48" transform="translate(-238.407 -21.908)" fill="#fae0b2"/>
        <path id="Trazado_39674" data-name="Trazado 39674" d="M516.721,37.567h0a.67.67,0,0,1-.938-.18l-.759-1.128a.687.687,0,0,1,.178-.948.669.669,0,0,1,.937.18l.76,1.127a.687.687,0,0,1-.178.948" transform="translate(-237.902 -16.26)" fill="#fae0b2"/>
        <path id="Trazado_39675" data-name="Trazado 39675" d="M523.518,118.872l-25.075,17.543-.626-1.642-6.6-17.258,17.409-12.179Z" transform="translate(-226.958 -48.668)" fill="#fcc13f"/>
        <g id="Grupo_15926" data-name="Grupo 15926" transform="translate(266.841 64.973)" opacity="0.68">
          <g id="Grupo_15925" data-name="Grupo 15925">
            <g id="Grupo_15924" data-name="Grupo 15924" clip-path="url(#clip-path-3)">
              <path id="Trazado_39676" data-name="Trazado 39676" d="M510.843,136.422l-7.491,5.241-7.339-18.818,2.958-2.07Z" transform="translate(-496.013 -120.775)" fill="#ff7a03"/>
            </g>
          </g>
        </g>
        <g id="Grupo_15929" data-name="Grupo 15929" transform="translate(273.621 60.199)" opacity="0.68">
          <g id="Grupo_15928" data-name="Grupo 15928">
            <g id="Grupo_15927" data-name="Grupo 15927" clip-path="url(#clip-path-4)">
              <path id="Trazado_39677" data-name="Trazado 39677" d="M526.36,125.539l-5.72,4L508.616,114l3-2.1Z" transform="translate(-508.616 -111.9)" fill="#ff7a03"/>
            </g>
          </g>
        </g>
        <path id="Trazado_39678" data-name="Trazado 39678" d="M499.04,106.765s-3.381,1.862-5.718,2.842-6.236,2.967-6.118,5.151,2.262,3.857,3.3,3.33a4.065,4.065,0,0,0,2.007-2.411,3.661,3.661,0,0,0,.023-2.479s-.091-.714.937.179,1.973,5.673,3.419,7.382a1.523,1.523,0,0,0,2.592-1.6c-.646-1.224-5.784-5.172-5.5-6.426s1.353-1.618,2.1-.834,1.266,3.729,2.363,4.745c1.146,1.062,2.5-.537,1.7-1.744s-3.841-3.09-3.455-3.763,2.28.355,4.326.183,2.519-3.022,2.445-4.28,1.09-3.986,3.632-2.44,4.66,8.173,6.018,9.539a1.986,1.986,0,0,0,3.142-2.349c-.955-1.973-5.833-5.488-7.756-7.285a1.436,1.436,0,0,1-.557-1.362,2.06,2.06,0,0,0-.9-2.256c-1.514-1.157-4.084-.646-5.639,1.45a18.64,18.64,0,0,0-2.364,4.424" transform="translate(-225.101 -46.335)" fill="#f3ffff"/>
        <path id="Trazado_39679" data-name="Trazado 39679" d="M505.682,107.919s-2.3,1.1-2.434,1.2-3.6.905-5.137,2.234a33.3,33.3,0,0,0-3.409,3.694s8.254-3.609,8.355-3.68,2.625-3.448,2.625-3.448" transform="translate(-228.567 -49.862)" fill="#f3ffff"/>
        <path id="Trazado_39680" data-name="Trazado 39680" d="M503.209,94.507a3.982,3.982,0,0,1,3.023,1.873c.88,1.717-.187,3.874-.767,4.96-.12.225-.309.362-.356.486.6-1.352,1.385-2.82,1.195-4.3-.192-1.566-1.594-2.417-3.156-2.582Z" transform="translate(-232.469 -43.665)" fill="#ff7a03"/>
        <path id="Trazado_39681" data-name="Trazado 39681" d="M507.087,108.123c.246,1.18-.789,2.393-2.31,2.71s-2.955-.382-3.2-1.562.788-2.393,2.31-2.71,2.954.382,3.2,1.562" transform="translate(-231.726 -49.199)" fill="#914817"/>
        <path id="Trazado_39682" data-name="Trazado 39682" d="M505.756,106.56c1.5,1.166.582,3.334-1.609,3.791a3.489,3.489,0,0,1-1.237.036,3.088,3.088,0,0,0,2.5.481c1.522-.317,2.556-1.531,2.31-2.71a2.215,2.215,0,0,0-1.964-1.6" transform="translate(-232.359 -49.234)" fill="#d34b00"/>
        <path id="Trazado_39683" data-name="Trazado 39683" d="M545.847,67.964l.083.181.516,1.129.142.309,11.443-2.829,6.568-4.819-.679-1.889-.619.195-.323.648-.724.021-.339.641-.724,0-.354.633-.724-.01-.367.625-.724-.026-.38.617-.724-.042-.394.608L556.8,63.9l-.408.6-.72-.077-.424.587-.718-.1-.441.575-.715-.117-.458.561-.711-.141-.477.545-.705-.167-.5.526-.7-.2-.521.5-.687-.229-.546.476-.674-.266-.573.443-.655-.308-.609.219.287.626" transform="translate(-252.064 -27.743)" fill="#2ba14c"/>
        <path id="Trazado_39684" data-name="Trazado 39684" d="M547.38,71.05c-.151.017,3.663,7,4.225,9.038s3.083,9.04,3.083,9.04L573.175,81.9s-4.874-9.338-5.982-12.424-1.6-5.932-1.756-5.915-13.074,6.947-18.058,7.491" transform="translate(-252.903 -29.366)" fill="#8cd334"/>
        <path id="Trazado_39685" data-name="Trazado 39685" d="M574.13,104.811s2.353,3.658,8.311,2.238c5.487-1.308,4.96-7.237,2.057-7.454s-5.951.367-7.669-.192c-3.157-1.027-4.385,3.692-2.7,5.408" transform="translate(-264.914 -45.861)" fill="#ff7a03"/>
        <path id="Trazado_39686" data-name="Trazado 39686" d="M587.582,94.732a4.074,4.074,0,0,0-.2,1.8,4.5,4.5,0,0,0,2.249,3.4c3.12,1.839,10,.044,8.579-3.535s-4.544-.47-6.452-1.372c-.856-.4-1.412-1.213-2.356-1.366a1.851,1.851,0,0,0-1.823,1.069" transform="translate(-271.377 -43.268)" fill="#fcc13f"/>
        <path id="Trazado_39687" data-name="Trazado 39687" d="M595.9,65.383a4.08,4.08,0,0,0,1.45,1.089,4.5,4.5,0,0,0,4.073-.2c3.173-1.746,5.136-8.577,1.334-9.183s-2.722,3.668-4.471,4.85c-.784.53-1.763.6-2.377,1.33a1.85,1.85,0,0,0-.01,2.113" transform="translate(-275.17 -26.35)" fill="#fcc13f"/>
        <path id="Trazado_39688" data-name="Trazado 39688" d="M565.847,102.693a5.637,5.637,0,0,1-3.906.533c-.975-.226-3.216-.351-4.449.832-2.241,2.149-1.151,5.392,2.063,6.667,2.815,1.117,10.815.382,10.8-5.414-.011-4.057-2.457-3.7-4.508-2.617" transform="translate(-257.032 -47.116)" fill="#fcc13f"/>
        <path id="Trazado_39689" data-name="Trazado 39689" d="M572.253,80.393c.813,2.283-1.874,5.328-6,6.8s-8.136.814-8.95-1.47,1.874-5.328,6-6.8,8.136-.814,8.95,1.469" transform="translate(-257.422 -36.102)" fill="#fee2bf"/>
        <path id="Trazado_39690" data-name="Trazado 39690" d="M560.355,110.846a4.765,4.765,0,0,0,1.1-1.68,7.69,7.69,0,0,0,.75-2.044c.038-.2-.222-.241-.31-.093-.364.606-.661,1.265-.972,1.9a7.618,7.618,0,0,0-.837,1.754.171.171,0,0,0,.268.163" transform="translate(-258.775 -49.41)" fill="#ff7a03"/>
        <path id="Trazado_39691" data-name="Trazado 39691" d="M564,111.706c.968-.4,1.726-2.857,1.954-3.889.055-.251-.36-.381-.437-.131a13.135,13.135,0,0,1-.838,2.042,5.669,5.669,0,0,0-.884,1.813.153.153,0,0,0,.206.165" transform="translate(-260.488 -49.692)" fill="#ff7a03"/>
        <path id="Trazado_39692" data-name="Trazado 39692" d="M569.045,111.73a3.767,3.767,0,0,0,.3-1.256c.074-.474.208-.937.28-1.41a.375.375,0,0,0-.712-.212,4.2,4.2,0,0,0-.28,2.87.228.228,0,0,0,.413.009" transform="translate(-262.651 -50.191)" fill="#ff7a03"/>
        <path id="Trazado_39693" data-name="Trazado 39693" d="M572.864,111.712a2.881,2.881,0,0,0-.159-1.854c-.224-.366-.8.475-.189,1.891a.183.183,0,0,0,.348-.038" transform="translate(-264.393 -50.718)" fill="#ff7a03"/>
        <path id="Trazado_39694" data-name="Trazado 39694" d="M574.622,109.726c.274,1.315.937.957.878.633a1.665,1.665,0,0,0-.525-.826.22.22,0,0,0-.353.193" transform="translate(-265.49 -50.585)" fill="#ff7a03"/>
        <path id="Trazado_39695" data-name="Trazado 39695" d="M590.8,97a3.719,3.719,0,0,0-.555,1.234,1.541,1.541,0,0,0-.033,1.237.219.219,0,0,0,.3.045,1.728,1.728,0,0,0,.364-1.024c.095-.449.207-.879.272-1.334.026-.187-.234-.328-.353-.157" transform="translate(-272.637 -44.783)" fill="#ff7a03"/>
        <path id="Trazado_39696" data-name="Trazado 39696" d="M593.067,98.064a6.359,6.359,0,0,0-.4,2.651.238.238,0,0,0,.435.009,3.705,3.705,0,0,0,.19-1.209c.049-.448.123-.888.152-1.337.013-.21-.293-.341-.38-.114" transform="translate(-273.809 -45.253)" fill="#ff7a03"/>
        <path id="Trazado_39697" data-name="Trazado 39697" d="M596.171,98.328a10.7,10.7,0,0,0,.017,2.623.227.227,0,0,0,.413.009,6.861,6.861,0,0,0-.047-2.621c-.025-.21-.363-.234-.384-.01" transform="translate(-275.413 -45.358)" fill="#ff7a03"/>
        <path id="Trazado_39698" data-name="Trazado 39698" d="M598.773,98.66a3.029,3.029,0,0,0,0,.938c.068.735.072,1.135.381,1.158a.327.327,0,0,0,.382-.363,7.111,7.111,0,0,0-.337-1.781.226.226,0,0,0-.429.047" transform="translate(-276.633 -45.5)" fill="#ff7a03"/>
        <path id="Trazado_39699" data-name="Trazado 39699" d="M601.544,98.81c-.239.508-.18,1.258.2,1.3a.3.3,0,0,0,.344-.161c.161-.309-.215-.553-.168-1.024a.2.2,0,0,0-.379-.114" transform="translate(-277.865 -45.6)" fill="#ff7a03"/>
        <path id="Trazado_39700" data-name="Trazado 39700" d="M599.857,70.037c.266.519.592.5.873,1.582.088.337.647.193.595-.147-.1-.639-.569-1.575-1.29-1.656-.112-.012-.239.1-.178.222" transform="translate(-277.144 -32.256)" fill="#ff7a03"/>
        <path id="Trazado_39701" data-name="Trazado 39701" d="M601.357,68.639c1.541,1.37,1.311,1.854,1.872,2.123a.208.208,0,0,0,.287-.154c.1-.481-.388-1-.686-1.33a3.723,3.723,0,0,0-1.292-.935.176.176,0,0,0-.181.3" transform="translate(-277.816 -31.568)" fill="#ff7a03"/>
        <path id="Trazado_39702" data-name="Trazado 39702" d="M603.353,66.284c1.742,1.2,1.789,1.939,2.325,1.881a.191.191,0,0,0,.156-.114c.153-.465-.469-.9-.777-1.167a5.379,5.379,0,0,0-1.51-.917c-.189-.08-.376.193-.194.317" transform="translate(-278.732 -30.472)" fill="#ff7a03"/>
        <path id="Trazado_39703" data-name="Trazado 39703" d="M605.095,63.531c.617.438,1.292.783,1.878,1.266a.381.381,0,0,0,.477-.594,4.145,4.145,0,0,0-2.194-1.036c-.189-.016-.342.236-.161.364" transform="translate(-279.534 -29.185)" fill="#ff7a03"/>
        <path id="Trazado_39704" data-name="Trazado 39704" d="M607.862,61.38a.316.316,0,0,0,.361.1h-.006a.185.185,0,0,0,.151-.11l-.018.017a.318.318,0,0,0-.047-.433,1.487,1.487,0,0,0-1.289-.347c-.186.036-.228.343-.009.359a1.331,1.331,0,0,1,.859.411" transform="translate(-280.384 -27.99)" fill="#ff7a03"/>
        <path id="Trazado_39705" data-name="Trazado 39705" d="M604.548,77.064a5.17,5.17,0,0,0,1.327,2.191,8.293,8.293,0,0,0,6.167,2.239c6-.163,14.02-7.165,8.856-10.205s-6.771,2.746-10.242,3.1c-1.556.158-3.051-.358-4.509.15a2.392,2.392,0,0,0-1.6,2.528" transform="translate(-279.302 -32.53)" fill="#fcc13f"/>
        <path id="Trazado_39706" data-name="Trazado 39706" d="M612.056,80.714c-.267.315-.032.819-.012,1.171.023.421-.191.968.055,1.35a.206.206,0,0,0,.279.054c.435-.325.339-.947.3-1.384-.037-.373-.057-1.033-.559-1.205a.058.058,0,0,0-.059.014" transform="translate(-282.729 -37.284)" fill="#ff7a03"/>
        <path id="Trazado_39707" data-name="Trazado 39707" d="M615.6,80.142a14.121,14.121,0,0,0,.258,1.745,5.414,5.414,0,0,0,.222,1.741.224.224,0,0,0,.37-.01,2.7,2.7,0,0,0,.067-1.714,3.954,3.954,0,0,0-.591-1.808c-.075-.106-.326-.108-.325.045" transform="translate(-284.423 -36.972)" fill="#ff7a03"/>
        <path id="Trazado_39708" data-name="Trazado 39708" d="M619.716,79.154c.777,2.627.5,3.25,1.014,3.83.3.343,1.253,0-.69-3.911-.072-.144-.37-.074-.324.08" transform="translate(-286.324 -36.498)" fill="#ff7a03"/>
        <path id="Trazado_39709" data-name="Trazado 39709" d="M622.982,77.693c-.1.568.465,1.3.745,1.809a9.669,9.669,0,0,0,1.175,1.861c.164.183.554.039.495-.181a9.245,9.245,0,0,0-.929-1.951c-.286-.513-.576-1.337-1.168-1.654a.214.214,0,0,0-.318.117" transform="translate(-287.83 -35.829)" fill="#ff7a03"/>
        <path id="Trazado_39710" data-name="Trazado 39710" d="M626.241,75.331c.741.969,1.369,2.013,2.149,2.958.344.416,1.045-.018.864-.433a6.459,6.459,0,0,0-2.767-2.737c-.179-.1-.349.076-.246.211" transform="translate(-289.327 -34.694)" fill="#ff7a03"/>
        <path id="Trazado_39711" data-name="Trazado 39711" d="M629.816,73.917c.3.42.906,1.379,1.511,1.365.216-.005.416-.1.436-.295.055-.521-1.109-1.08-1.572-1.319-.191-.1-.51.058-.376.248" transform="translate(-290.978 -34.023)" fill="#ff7a03"/>
        <path id="Trazado_39712" data-name="Trazado 39712" d="M449.188,48.179a17.726,17.726,0,0,1-5.583,1.348,11.23,11.23,0,0,1-10.046-4.774c-2.306-3.184-3.066-7.251-1.892-10.121,1.377-3.368,5.214-5.144,8.292-5.158a7.382,7.382,0,0,1,2.953.566,7.414,7.414,0,0,1,3.771-3.831,9.067,9.067,0,0,1,7.653.841,9.477,9.477,0,0,1,4.753,7.118,11.656,11.656,0,0,1-2.895,8.814,18.07,18.07,0,0,1-7.005,5.2m-11.407-14.3a4.444,4.444,0,0,0-2.469,2.24c-.549,1.344-.232,4.015,1.437,6.32a7.323,7.323,0,0,0,6.577,3.157,14.358,14.358,0,0,0,9.811-5.1,7.812,7.812,0,0,0,2.048-5.8,5.543,5.543,0,0,0-2.806-4.226,5.329,5.329,0,0,0-4.174-.629,3.655,3.655,0,0,0-1.942,2.566,1.665,1.665,0,0,0,.176,1.386,1.97,1.97,0,0,1-.829,3.252,9.019,9.019,0,0,1-.476.854,1.969,1.969,0,1,1-3.336-2.093c.492-.784.507-1.187.474-1.266a2.351,2.351,0,0,0-2.3-1.127,5.882,5.882,0,0,0-2.2.47" transform="translate(-199.19 -11.875)" fill="#ffa42f"/>
        <path id="Trazado_39713" data-name="Trazado 39713" d="M476.2,39.3a17.752,17.752,0,0,1-2.141,1.29c.013.076.028.151.039.229a7.81,7.81,0,0,1-2.042,5.794,16.927,16.927,0,0,0,2.764-.9,21.165,21.165,0,0,0,2.883-1.487,9.811,9.811,0,0,0,.3-3.936,10.543,10.543,0,0,0-.255-1.269,1.763,1.763,0,0,0-1.547.277" transform="translate(-218.104 -17.998)" fill="#ff7a03"/>
        <path id="Trazado_39714" data-name="Trazado 39714" d="M441.946,59.025a7.778,7.778,0,0,1-3.354-2.679c-.132-.182-.252-.366-.367-.551-1.171,1-2.3,1.86-3.115,2.438.095.143.192.285.293.424a11.87,11.87,0,0,0,3.247,3.083c.9-.678,2.086-1.617,3.3-2.714" transform="translate(-201.033 -25.779)" fill="#ff7a03"/>
        <path id="Trazado_39715" data-name="Trazado 39715" d="M465.574,42.823c-3.407,1.429-8.316,2.5-11.71-1a1.969,1.969,0,0,1,2.827-2.742c3.218,3.317,10.479-1.536,10.551-1.586a1.969,1.969,0,0,1,2.236,3.242,23.429,23.429,0,0,1-3.9,2.087" transform="translate(-209.441 -17.162)" fill="#ffa42f"/>
        <path id="Trazado_39716" data-name="Trazado 39716" d="M436.244,54.479a1.97,1.97,0,0,1-1.8-3.489c1.772-1.1,6.747-4.565,8.462-7.3a1.969,1.969,0,1,1,3.336,2.093c-2.55,4.065-9.426,8.369-9.717,8.549a1.978,1.978,0,0,1-.28.145" transform="translate(-200.296 -19.76)" fill="#ffa42f"/>
        <path id="Trazado_39717" data-name="Trazado 39717" d="M133.885,86.748A3.006,3.006,0,0,0,135,89.936c1.7,1.187,5.937-1.9,7.363-2.545s1.967-.136,1.967-.136-3.223-6.548-8.211-5.53c-2.975.607-3.121,2.751-2.239,5.022" transform="translate(-61.64 -37.71)" fill="#8cd334"/>
        <path id="Trazado_39718" data-name="Trazado 39718" d="M138.321,88.354a6.456,6.456,0,0,1-2.189-.7,43.837,43.837,0,0,1,4.688.3c-.775-.179-1.772-.366-2.845-.511.086-.661,1.373-.89,1.387-.892a.068.068,0,0,0-.023-.134c-.059.01-1.4.25-1.5,1.008-.485-.063-.986-.118-1.486-.159.16-1.18,1.958-1.774,1.977-1.781a.068.068,0,1,0-.042-.129c-.081.026-1.91.63-2.071,1.9-.529-.04-1.058-.066-1.57-.069,0-1.506,2.087-2.6,2.109-2.609a.068.068,0,0,0-.062-.121c-.094.048-2.189,1.143-2.184,2.729a12.861,12.861,0,0,0-1.806.114c-.221-1.515,1.38-2.943,1.4-2.958a.068.068,0,0,0,.006-.1.068.068,0,0,0-.1-.006c-.073.064-1.68,1.5-1.442,3.081a6.8,6.8,0,0,0-.671.14c-2.336.647-2.872-1.012-3.012-1.175a.271.271,0,0,0-.327-.144c-.563.176.286,1.35.917,1.76,1.076.658,1.921.352,3.048.088a3.341,3.341,0,0,0,2.266,1.954h.012a.068.068,0,0,0,.012-.134,3.2,3.2,0,0,1-2.156-1.852,9.521,9.521,0,0,1,1.35-.209c.526.988,2.439,1.278,2.527,1.291h.01a.068.068,0,0,0,.01-.135c-.021,0-1.861-.281-2.4-1.17.573-.049,1.169-.073,1.774-.077a5.876,5.876,0,0,0,2.365.838.068.068,0,0,0,.022-.134" transform="translate(-59.314 -38.909)" fill="#2ba14c"/>
        <path id="Trazado_39719" data-name="Trazado 39719" d="M81.7,87.038s-8.5-1.9-11.4,6.062-1.357,15.2,3.89,16.376,6.333-2.9,11.943-3.348,9.59-10.766,5.067-15.29a11.954,11.954,0,0,0-9.5-3.8" transform="translate(-31.815 -40.122)" fill="#f3ffff"/>
        <path id="Trazado_39720" data-name="Trazado 39720" d="M89.191,103.025a5.881,5.881,0,1,1-5.881-5.881,5.881,5.881,0,0,1,5.881,5.881" transform="translate(-35.775 -44.883)" fill="#fcc13f"/>
        <path id="Trazado_39721" data-name="Trazado 39721" d="M87.7,97.144a5.949,5.949,0,0,0-.769.05,5.881,5.881,0,0,1,0,11.662A5.881,5.881,0,1,0,87.7,97.144" transform="translate(-40.165 -44.883)" fill="#ffa42f"/>
        <path id="Trazado_39722" data-name="Trazado 39722" d="M103.365,148.472a2.97,2.97,0,0,1,.133-3.383c1.843-2.57,5.986-3.7,9.651-4.228,12.5-1.81,27.419,5.157,28.376,13.028s-7.695,14.567-14.632,14.567-13.31-9.228-14.456-11.309c-1.066-1.938-3.182-3.183-5.07-4.653a15.152,15.152,0,0,1-4-4.02" transform="translate(-47.543 -64.948)" fill="#ffa42f"/>
        <path id="Trazado_39723" data-name="Trazado 39723" d="M142,153.889c-.957-7.872-15.875-14.838-28.375-13.028-3.666.53-7.809,1.658-9.652,4.228l-.042.06a24.815,24.815,0,0,1,5.874-1.5c12.5-1.81,27.418,5.157,28.375,13.028.459,3.773-1.289,7.274-4,9.9,4.676-2.529,8.47-7.338,7.819-12.692" transform="translate(-48.02 -64.948)" fill="#ff7a03"/>
        <path id="Trazado_39724" data-name="Trazado 39724" d="M145.965,170.97c0,2.049-2.273,3.71-5.076,3.71s-5.076-1.661-5.076-3.71,2.272-3.71,5.076-3.71,5.076,1.661,5.076,3.71" transform="translate(-62.749 -77.279)" fill="#fee2bf"/>
        <path id="Trazado_39725" data-name="Trazado 39725" d="M145.685,172.215c0,1.249-1.385,2.261-3.092,2.261s-3.093-1.012-3.093-2.261,1.385-2.261,3.093-2.261,3.092,1.012,3.092,2.261" transform="translate(-64.453 -78.524)" fill="#ff7a03"/>
        <path id="Trazado_39726" data-name="Trazado 39726" d="M151.9,179.344a1.2,1.2,0,1,1-1.183-.984,1.1,1.1,0,0,1,1.183.984" transform="translate(-69.088 -82.407)" fill="#fee2bf"/>
        <path id="Trazado_39727" data-name="Trazado 39727" d="M125.8,151.62s-8.045,1.674-8.911,6.062c0,0,4.394-4.84,8.911-6.062" transform="translate(-54.007 -70.053)" fill="#fee2bf"/>
        <path id="Trazado_39728" data-name="Trazado 39728" d="M133.487,154.647s-11.058,3.057-9.988,7.916c0,0,4.134-5.745,9.988-7.916" transform="translate(-57.027 -71.451)" fill="#fee2bf"/>
        <path id="Trazado_39729" data-name="Trazado 39729" d="M45.973,169.869s4.742-4.734-1.177-6.927-7.342,3.488-7.342,3.488-9.377-5.515-10.814,2.936,5.407,6.316,5.407,6.316-4.207,7.823,2.465,7.823,6.22-5.334,6.22-5.334,6.547,5.867,9.348-.711-4.106-7.591-4.106-7.591m1.781,6.682c-2.234,5.246-7.455.568-7.455.568s.36,4.253-4.961,4.253-1.965-6.238-1.965-6.238-5.458,1.7-4.312-5.038,8.623-2.341,8.623-2.341a4.135,4.135,0,0,1,5.855-2.781c4.72,1.749.939,5.524.939,5.524s5.508.808,3.275,6.054" transform="translate(-12.217 -75.051)" fill="#ffa42f"/>
        <path id="Trazado_39730" data-name="Trazado 39730" d="M171.847,88.8S170.239,81.35,166,82.047s-3.11,3.968-1.769,3.968.984-2.379,3.2-1.645,3.5,4.433,3.5,4.433Z" transform="translate(-75.32 -37.887)" fill="#2ba14c"/>
        <path id="Trazado_39731" data-name="Trazado 39731" d="M165.206,93.784a4.979,4.979,0,0,0-5.522,2.091c-2.037,3.163.429,10.347,5.9,14.8s9.061,6.487,10.561,5.79,1.233-1.662,1.233-1.662,5.254,2.306,5.629-2.734c0,0,3.914,2.359,4.5-3s-3.056-23.59-10.026-22.624a4.338,4.338,0,0,0-4.211,3.538s-6.94-3.86-8.066,3.807" transform="translate(-73.45 -39.92)" fill="#914817"/>
        <path id="Trazado_39732" data-name="Trazado 39732" d="M166.074,103.033c-.894-.6-3.5-.75-3.09,3s11.775,16.566,13.7,16.03-6.1-15.987-10.615-19.032" transform="translate(-75.283 -47.453)" fill="#fcc13f"/>
        <path id="Trazado_39733" data-name="Trazado 39733" d="M179.321,95.66c-.723-.761-3.36-1.93-4.11.858s10.561,22.785,12.224,20.587-4.166-17.289-8.114-21.445" transform="translate(-80.936 -43.78)" fill="#fcc13f"/>
        <path id="Trazado_39734" data-name="Trazado 39734" d="M193.375,90.781c-.55-.684-2.443-1.656-3.485-.429-2.251,2.654,7.077,24.233,8.418,21.874s-1.483-17.16-4.933-21.445" transform="translate(-87.574 -41.474)" fill="#fcc13f"/>
        <path id="Trazado_39735" data-name="Trazado 39735" d="M90.075,194.3s-.633,1.719-8.6,4.524c-8.878,3.128-13.028,3.709-15.652,12.214a61.851,61.851,0,0,1,8.595-1.357C82.9,209,89.193,201.834,90.075,194.3" transform="translate(-30.414 -89.773)" fill="#2ba14c"/>
        <path id="Trazado_39736" data-name="Trazado 39736" d="M101.5,194.091s.8,1.176,1.945,8.483c1.854,11.807-6.65,16.511-12.893,14.249,0,0,6.741-3.483,7.786-8.957.938-4.912,3.162-13.775,3.162-13.775" transform="translate(-41.836 -89.676)" fill="#2ba14c"/>
        <path id="Trazado_39737" data-name="Trazado 39737" d="M90.518,209.422a2.76,2.76,0,1,1-2.759-2.759,2.759,2.759,0,0,1,2.759,2.759" transform="translate(-39.272 -95.484)" fill="#fee2bf"/>
        <path id="Trazado_39738" data-name="Trazado 39738" d="M82.241,213.945a1.9,1.9,0,1,1-1.9-1.9,1.9,1.9,0,0,1,1.9,1.9" transform="translate(-36.242 -97.971)" fill="#fee2bf"/>
        <path id="Trazado_39739" data-name="Trazado 39739" d="M75.072,216.971a1.9,1.9,0,1,1-1.9-1.9,1.9,1.9,0,0,1,1.9,1.9" transform="translate(-32.93 -99.369)" fill="#fee2bf"/>
        <path id="Trazado_39740" data-name="Trazado 39740" d="M99.059,205.619a1.9,1.9,0,1,1-1.9-1.9,1.9,1.9,0,0,1,1.9,1.9" transform="translate(-44.012 -94.124)" fill="#fee2bf"/>
        <path id="Trazado_39741" data-name="Trazado 39741" d="M79.715,201.929c3.855-.565,8.015-4.5,9.646-6.2-.938.762-3.072,2.06-7.882,3.755C72.6,202.614,68.452,203.2,65.828,211.7c0,0,8.957-9.048,13.887-9.772" transform="translate(-30.414 -90.434)" fill="#8cd334"/>
        <path id="Trazado_39742" data-name="Trazado 39742" d="M90.021,195.067c-.888,3.619-12.556,11.488-16.689,12.521a20.629,20.629,0,0,0-7.5,3.806,61.87,61.87,0,0,1,8.6-1.357c8.327-.667,14.54-7.589,15.6-14.969" transform="translate(-30.414 -90.127)" fill="#8cd334"/>
        <path id="Trazado_39743" data-name="Trazado 39743" d="M108.642,194s-3.144-.09-2.511.882,1.933-.055,1.933-.055-1.007.576-.859,1.4,1.081.442,1.293,0a1.634,1.634,0,0,0,.144-.873s.015,1.244.607,1.358,0-1.492,0-1.492.49.69.8.385-1.4-1.606-1.4-1.606" transform="translate(-48.997 -89.634)" fill="#7271b3"/>
        <path id="Trazado_39744" data-name="Trazado 39744" d="M110.6,191.439a5.287,5.287,0,0,0,.338-2.035c.012-1.857-.461-2.276.023-2.369a.272.272,0,0,1,.318.216,8.633,8.633,0,0,1-.68,4.188" transform="translate(-51.102 -86.413)" fill="#7271b3"/>
        <path id="Trazado_39745" data-name="Trazado 39745" d="M103.043,228.021a3.279,3.279,0,0,1-.442,2.38,3.242,3.242,0,0,1-3.81.628,3.392,3.392,0,0,0,1.561.142c1.62-.232,2.094-.755,2.408-1.595a4.985,4.985,0,0,0,.283-1.556" transform="translate(-45.644 -105.352)" fill="#8cd334"/>
        <path id="Trazado_39746" data-name="Trazado 39746" d="M108.595,217.594a3.135,3.135,0,0,1-1.9,5.609,3.3,3.3,0,0,0,1.9-5.609" transform="translate(-49.296 -100.535)" fill="#8cd334"/>
        <path id="Trazado_39747" data-name="Trazado 39747" d="M110.588,207.882a3.2,3.2,0,0,1,1.612,2.984,2.513,2.513,0,0,1-.073.424,2.682,2.682,0,0,1-1.9,1.817c2.382-1.32,2.085-3.673.362-5.225" transform="translate(-50.928 -96.047)" fill="#8cd334"/>
        <path id="Trazado_39748" data-name="Trazado 39748" d="M447.774,75.764c-1.168-.5-2.7.44-3.411,2.1s-.349,3.42.819,3.923,2.695-.44,3.411-2.1.349-3.421-.819-3.924m-.366.852c.627.27,1,.8.835,1.186s-.808.479-1.435.21-1-.8-.835-1.186.809-.479,1.435-.21m-1.74,4.045c-.884-.38-1.394-1.171-1.138-1.765s1.179-.768,2.064-.387,1.394,1.171,1.138,1.765-1.18.768-2.064.387" transform="translate(-205.139 -34.943)" fill="#7271b3"/>
        <path id="Trazado_39749" data-name="Trazado 39749" d="M426.753,84.446a7.94,7.94,0,0,0-1.986,2.767l-9.492,22.065a2.641,2.641,0,0,0,1.4,3.461l12.617,5.427a2.64,2.64,0,0,0,3.475-1.364l9.491-22.065a7.956,7.956,0,0,0,.643-3.345Z" transform="translate(-191.771 -39.016)" fill="#ed8730"/>
        <path id="Trazado_39750" data-name="Trazado 39750" d="M418.621,110.717l9.491-22.065a7.949,7.949,0,0,1,1.986-2.767l-3.346-1.439a7.947,7.947,0,0,0-1.986,2.767l-9.492,22.065a2.641,2.641,0,0,0,1.4,3.461l3.346,1.439a2.64,2.64,0,0,1-1.4-3.461" transform="translate(-191.771 -39.016)" fill="#fcc13f"/>
        <path id="Trazado_39751" data-name="Trazado 39751" d="M450.051,98.8l-9.493,22.067a2.641,2.641,0,0,1-3.475,1.364l-5.159-2.219a2.656,2.656,0,0,0,3.5-1.353L444.918,96.6a7.926,7.926,0,0,0,.634-3.347l5.138,2.211a7.954,7.954,0,0,1-.64,3.344" transform="translate(-199.562 -43.084)" fill="#d34b00"/>
        <path id="Trazado_39752" data-name="Trazado 39752" d="M452.941,90.672l-16.15-6.947A1.4,1.4,0,0,1,438.63,83L452.2,88.84a1.4,1.4,0,0,1,.741,1.832" transform="translate(-201.81 -38.296)" fill="#352e73"/>
        <rect id="Rectángulo_3872" data-name="Rectángulo 3872" width="2.985" height="19.042" transform="translate(224.2 68.648) rotate(-66.726)" fill="#352e73"/>
        <rect id="Rectángulo_3873" data-name="Rectángulo 3873" width="9.953" height="22.608" transform="translate(229.384 103.012) rotate(-37.619)" fill="#adeff7"/>
        <path id="Trazado_39753" data-name="Trazado 39753" d="M429.954,173.514l-.781.047-.078.429-.52.032-.078.429-.52.031-.077.429-.52.031-.079.429-.52.032-.077.429-.52.032-.078.429-.52.032-.078.429-.52.032-.078.429-.52.032-.077.429-.52.032-.077.429-.52.031-.077.429-.52.031-.078.429-.52.031-.078.429-.52.032-.077.429-.52.032-.078.429-.52.032-.126.694-.029.023.024.006,0,.02.063,0,2.284.622,1.04,1.349,7.883-6.076-1.039-1.349-.33-2.215-.03.023Z" transform="translate(-194.077 -80.168)" fill="#352e73"/>
        <path id="Trazado_39754" data-name="Trazado 39754" d="M463.009,215.691l-2.112-.953-.973-1.263-7.884,6.076.973,1.263.072,2.434-.019.062.021,0v.026l.029-.023.717.072.155-.505.443.044.155-.5.442.044.155-.5.442.045.156-.505.443.044.155-.5.443.044.154-.505.443.045.155-.5.443.044.154-.5.443.044.155-.5.443.044.155-.505.443.044.155-.5.442.044.155-.505.442.044.155-.5.443.044.155-.5.442.044.155-.5.443.044.233-.759-.051-.005Z" transform="translate(-208.855 -98.632)" fill="#352e73"/>
        <rect id="Rectángulo_3874" data-name="Rectángulo 3874" width="5.748" height="17.554" transform="translate(232.574 103.71) rotate(-37.62)" fill="#fee2bf"/>
        <path id="Trazado_39755" data-name="Trazado 39755" d="M426.387,186.264l3.19.7,4.553-3.509.14-3.265Z" transform="translate(-197.003 -83.252)" fill="#7271b3"/>
        <path id="Trazado_39756" data-name="Trazado 39756" d="M452.04,218.917l.1-3.305L456.7,212.1l3.226.739Z" transform="translate(-208.856 -97.997)" fill="#7271b3"/>
        <path id="Trazado_39757" data-name="Trazado 39757" d="M497.519,221.287c-1.066,1.578-2.623,2.39-3.476,1.813s-.681-2.324.386-3.9,2.623-2.389,3.476-1.812.681,2.324-.386,3.9" transform="translate(-228.012 -100.353)" fill="#914817"/>
        <path id="Trazado_39758" data-name="Trazado 39758" d="M528.871,230.842a2.921,2.921,0,1,1-2.921-2.921,2.921,2.921,0,0,1,2.921,2.921" transform="translate(-241.654 -105.306)" fill="#fcc13f"/>
        <path id="Trazado_39759" data-name="Trazado 39759" d="M557.538,223.714a2.921,2.921,0,1,1-2.921-2.921,2.921,2.921,0,0,1,2.921,2.921" transform="translate(-254.899 -102.013)" fill="#8cd334"/>
        <path id="Trazado_39760" data-name="Trazado 39760" d="M505.05,237.63c-.516.763-2.094.6-3.525-.37s-2.173-2.37-1.658-3.133,2.094-.6,3.525.37,2.173,2.37,1.658,3.133" transform="translate(-230.877 -107.952)" fill="#7271b3"/>
        <path id="Trazado_39761" data-name="Trazado 39761" d="M516.893,215.979a2.233,2.233,0,1,1-2.233-2.233,2.232,2.232,0,0,1,2.233,2.233" transform="translate(-236.756 -98.757)" fill="#8cd334"/>
        <path id="Trazado_39762" data-name="Trazado 39762" d="M491.528,174.807c0,.716-1.331,1.3-2.973,1.3s-2.973-.58-2.973-1.3,1.331-1.3,2.973-1.3,2.973.58,2.973,1.3" transform="translate(-224.353 -80.168)" fill="#914817"/>
        <path id="Trazado_39763" data-name="Trazado 39763" d="M470.292,152.947c0,.8-1.418,1.452-3.167,1.452s-3.166-.65-3.166-1.452,1.418-1.452,3.166-1.452,3.167.65,3.167,1.452" transform="translate(-214.363 -69.995)" fill="#fcc13f"/>
        <path id="Trazado_39764" data-name="Trazado 39764" d="M286.117,54.847c-3.967-6.381-10.959-11.164-18.717-11.179-13.989-.027-22.3,6.644-26.9,14.18l-.447.733c-10.606,17.458-16.419,29.811-35.085,37.458-43.79,17.942-33.836,66.183-6.606,83.79,43.2,27.935,70.624.381,85.52-32.774,23.076-51.366,5.046-87.687,2.235-92.208" transform="translate(-80.864 -20.176)" fill="#444"/>
        <path id="Trazado_39765" data-name="Trazado 39765" d="M276.284,357.029s-10.422,17.661-14.493,33.516c-2.814,10.957-4.231,43.983-4.231,43.983h88.778s-9.908-66.048-28.521-74.5-41.532-3-41.532-3" transform="translate(-119 -164.157)" fill="#415214"/>
        <path id="Trazado_39766" data-name="Trazado 39766" d="M334.417,188.888c-12.89-1.21-47.8,1.95-63.641,4.51-2.262.366,10.977,78.927,7.357,92.737l-7.372,15.1s44.4,9.535,66.711-2.527L325,279.674c2.223-10.18,19.306-89.857,9.419-90.786" transform="translate(-124.985 -87.149)" fill="#ed8730"/>
        <path id="Trazado_39767" data-name="Trazado 39767" d="M311.015,149.184s-1.925,46.885,9.212,47.847,11.4-27.61,11.543-31.118l.775-19.1Z" transform="translate(-143.639 -67.832)" fill="#ffc5bb"/>
        <g id="Grupo_15932" data-name="Grupo 15932" transform="translate(167.249 78.982)" opacity="0.5" style="mix-blend-mode: multiply;isolation: isolate">
          <g id="Grupo_15931" data-name="Grupo 15931">
            <g id="Grupo_15930" data-name="Grupo 15930" clip-path="url(#clip-path-5)">
              <path id="Trazado_39768" data-name="Trazado 39768" d="M310.9,159.152c7.108,8.319,17.421,7.027,21.082,1.6l.565-13.935-21.53,2.37s-.17,4.132-.117,9.969" transform="translate(-310.888 -146.815)" fill="#f47458"/>
            </g>
          </g>
        </g>
        <path id="Trazado_39769" data-name="Trazado 39769" d="M327.122,291.024c5.5-1.777,25.742-95.5-2.335-102.081,0,0,.648,2.064-.322,19.33-1.131,20.13-7.074,64.486-7.074,64.486s-25.328-6.31-45.276-4.071l-16.75,9.748-2.555,10.89s6.062,6.061,7.328,6.061-2.082-5.338-2.082-5.338,3.123,3.121,3.892,2.352-1.408-4.975-1.408-4.975L272.624,281s49,11.8,54.5,10.023" transform="translate(-116.805 -87.297)" fill="#ffc5bb"/>
        <path id="Trazado_39770" data-name="Trazado 39770" d="M382.773,188.9s-.826.19-1.033,19.351c-.111,10.307-1.732,26.928-3.349,40.714a119.885,119.885,0,0,1,21.052.844c4.625-28.777,2.057-60.285-16.671-60.909" transform="translate(-174.827 -87.279)" fill="#ed8730"/>
        <path id="Trazado_39771" data-name="Trazado 39771" d="M244.724,217.466c-.237,19.55,2.172,49.3,14.656,66.161,3.262,4.4,9.5-8.22,9.5-8.22s-4.828-78.723-10.049-77.906c-4.784.749-13.912,3.872-14.108,19.964" transform="translate(-113.062 -91.248)" fill="#f48c7f"/>
        <path id="Trazado_39772" data-name="Trazado 39772" d="M266.121,257.626c-1.767-23.168-5.192-60.69-8.8-60.124-4.784.749-15.676,3.872-15.871,19.964-.157,12.92.858,30.969,5.157,46.134,3.893-2.234,9.666-4.98,14.249-5.293a41.618,41.618,0,0,0,5.27-.682" transform="translate(-111.548 -91.249)" fill="#ed8730"/>
        <path id="Trazado_39773" data-name="Trazado 39773" d="M310.537,159.93a29.724,29.724,0,0,0-1,4.026c-.407,2.307.5,4.569-1.266,6.831s4.7,15.792,4.7,15.792a27.266,27.266,0,0,0,.776-9.277c-.588-4.3.159-14.906,1.04-15.788s-4.252-1.583-4.252-1.583" transform="translate(-142.291 -73.892)" fill="#f48c7f"/>
        <path id="Trazado_39774" data-name="Trazado 39774" d="M283.547,141.909l-4.762,5.157-3.381,4.66s.814,8.459.361,9.952-.226,2.533.317,4.479,4.071,11.536,4.3,15.2c0,0-6.491,20.108-7.985,23.636s-7.961,28.02-9.3,34.539c-.892,4.358,2.888,18.927,7.07,20.733,4.076,1.761,8.911,2.352,12.88-20.733,1-5.839,7.735-51.435,7.735-53.335s1.892-3.983,2.036-7.944c.17-4.674-4.479-9.97-4.479-9.97l3.053-4.954,2.715-.339s2.951,2.952,3.8,2.1-1.561-3.6-1.561-3.6.95,1.131,1.741.339S294.45,156,294.45,156l-6.718-3.121-1.357.2-5.8,5.428-.308-6.379,2.443-4.546s4.524-4.773.837-5.678" transform="translate(-121.499 -65.566)" fill="#ffc5bb"/>
        <path id="Trazado_39775" data-name="Trazado 39775" d="M315.306,176.284c-.214-.091-.424-.189-.634-.288s-.415-.2-.624-.3-.41-.211-.615-.316-.409-.214-.611-.325l.131.037c-.415.023-.829.044-1.244.056s-.829.022-1.243.027l.209-.074q-1.31,1.079-2.677,2.088c-.459.332-.918.664-1.388.982s-.944.633-1.437.922c.388-.42.8-.813,1.21-1.2s.835-.767,1.258-1.144q1.279-1.118,2.616-2.164l.1-.075.114,0q.621.008,1.243.027c.415.013.83.033,1.244.057l.084,0,.047.032q.286.194.566.4c.187.136.376.267.56.408s.371.274.552.419.365.286.543.436" transform="translate(-140.999 -80.624)" fill="#f47458"/>
        <path id="Trazado_39776" data-name="Trazado 39776" d="M314.568,172.193c-.208-.238-.406-.481-.6-.725l-.583-.739-.569-.748-.555-.757.148.11c-.379-.1-.754-.211-1.131-.316s-.752-.218-1.126-.329c-.748-.229-1.494-.463-2.236-.71l.285-.045-1.129.751-1.143.731c-.387.235-.769.477-1.163.7s-.784.455-1.186.669q.505-.459,1.03-.891c.347-.293.7-.572,1.054-.857l1.074-.83,1.087-.81.123-.092.162.047c.751.221,1.5.454,2.242.693.372.122.744.242,1.114.372s.741.251,1.108.385l.1.038.044.073.485.8.471.812.458.823c.149.277.3.553.437.836" transform="translate(-140.26 -77.302)" fill="#f47458"/>
        <path id="Trazado_39777" data-name="Trazado 39777" d="M301.023,68.343s-2.933,6.6-2.933,20.349,3.3,21.632,9.716,26.216,13.815,2.541,17.416,0c6.5-4.589,12.833-21.632,11-33.732s-7.333-35.931-35.2-12.833" transform="translate(-137.726 -27.094)" fill="#ffc5bb"/>
        <path id="Trazado_39778" data-name="Trazado 39778" d="M308.807,50.554c-.641,0-9.074,3.3-13.107,11.916s0,20.349,0,20.349,3.065-7.7,5.657-8.341,12.491,2.567,16.432-1.375,8.8-12.1,8.8-12.1-.962,10.4-3.941,13.383,8.98,4.675,11.869,1.009,4.263,11.458,4.263,11.458,1.466-19.432-7.791-29.424-22.182-6.874-22.182-6.874" transform="translate(-135.794 -23.145)" fill="#444"/>
        <path id="Trazado_39779" data-name="Trazado 39779" d="M225.257,7.259s7.79,6.844,3.425,15.8-19.068,17.077-21.715,16.848c-2.168-.188-3.624-1.449-5.047-2.972-1.232-1.32-.141-.966,2.181-7s4.238-5.349,5.552-12.01,10.181-15.089,15.6-10.659" transform="translate(-93.056 -2.784)" fill="#2ba14c"/>
        <path id="Trazado_39780" data-name="Trazado 39780" d="M206.2,36.5a5.143,5.143,0,0,1-3.911.512l-.019,0c-1.746-.447-3.2-1.98-.881-8.019s3.739-6.428,5.053-13.089,12.783-13.5,18.205-9.07a4.683,4.683,0,0,1,.7.805,14.143,14.143,0,0,1-.764,12.161c-3.392,6.486-11.653,12.766-18.386,16.7" transform="translate(-92.491 -2.502)" fill="#8cd334"/>
        <path id="Trazado_39781" data-name="Trazado 39781" d="M225.859,10.977a4.415,4.415,0,0,0-3.5-3.381c-5.286-.945-13.172,4.358-14.176,9.445A26.925,26.925,0,0,1,205.3,25.36c-1.132,2.242-6.074,11-1.536,12.052,2.45.567,5.326-2.362,7.174-3.62a65.435,65.435,0,0,0,5.245-3.951c1.668-1.4,3.865-3.029,5.043-4.887.839-1.324,6.346-6.5,4.629-13.975" transform="translate(-93.277 -3.459)" fill="#fee2bf"/>
        <path id="Trazado_39782" data-name="Trazado 39782" d="M218.051,21.491c-2.313,3.764-2.091,8.112.5,9.712s6.558-.155,8.871-3.92,2.091-8.112-.5-9.712-6.558.155-8.871,3.92" transform="translate(-100.007 -7.845)" fill="#ff7a03"/>
        <path id="Trazado_39783" data-name="Trazado 39783" d="M221.887,92.074c-.734,2.722-3.913,4.091-7.1,3.057s-5.173-4.078-4.437-6.8,3.913-4.091,7.1-3.057,5.172,4.078,4.437,6.8" transform="translate(-97.118 -39.24)" fill="#2ba14c"/>
        <path id="Trazado_39784" data-name="Trazado 39784" d="M228.585,95.868a1.352,1.352,0,1,1-1.346-1.475,1.415,1.415,0,0,1,1.346,1.475" transform="translate(-104.369 -43.612)" fill="#8cd334"/>
        <path id="Trazado_39785" data-name="Trazado 39785" d="M250.508,63.856A4.291,4.291,0,0,0,254.7,66.08c2.849-.376,4.146-7.541,4.959-9.545s1.849-1.992,1.849-1.992-9.541-3.7-13.579,2.042c-2.41,3.424-.495,5.766,2.578,7.271" transform="translate(-114.048 -24.659)" fill="#8cd334"/>
        <path id="Trazado_39786" data-name="Trazado 39786" d="M256.717,59.138a8.766,8.766,0,0,1-2.88,1.335,59.407,59.407,0,0,1,5-4.108c-.951.546-2.134,1.292-3.354,2.153-.549-.76.526-2.207.537-2.222a.1.1,0,0,0-.152-.116c-.05.066-1.17,1.575-.538,2.447-.55.392-1.106.806-1.649,1.236-.974-1.363.264-3.667.277-3.692a.1.1,0,0,0-.038-.129.092.092,0,0,0-.128.036c-.056.1-1.316,2.446-.258,3.9-.571.456-1.127.927-1.646,1.406-1.449-1.548-.4-4.635-.387-4.667a.1.1,0,0,0-.179-.066c-.048.138-1.1,3.235.428,4.861a17.332,17.332,0,0,0-1.707,1.817c-1.68-1.349-1.443-4.324-1.44-4.356a.1.1,0,0,0-.086-.1.092.092,0,0,0-.1.084c-.011.134-.25,3.119,1.512,4.524a9.337,9.337,0,0,0-.541.776c-1.728,2.865-3.862,1.663-4.16,1.627a.371.371,0,0,0-.468.159c-.4.711,1.586,1.121,2.616.947,1.716-.337,2.271-1.446,3.15-2.778a4.625,4.625,0,0,0,4.161-.124l.013-.011a.1.1,0,0,0-.117-.15,4.428,4.428,0,0,1-3.951.125,12.786,12.786,0,0,1,1.158-1.486c1.479.52,3.681-.982,3.783-1.052l.011-.009a.093.093,0,0,0,.011-.123.1.1,0,0,0-.132-.025c-.023.016-2.142,1.462-3.537,1.054.529-.591,1.106-1.176,1.711-1.749,1,.088,3.091-1.3,3.186-1.366a.093.093,0,0,0,.024-.131.1.1,0,0,0-.131-.027" transform="translate(-113.062 -25.887)" fill="#2ba14c"/>
        <path id="Trazado_39787" data-name="Trazado 39787" d="M558.8,146.814c-2.363,2.008-3.91,4.779-5.957,7.075a13.64,13.64,0,0,1-1.751,1.671c-2.7,2.116-7.167,3.789-8.676,6.46,0,0-2.916,4.251,3.746,7.1s23.952-12.833,21.654-21.1a4.557,4.557,0,0,0-1.931-2.885c-2.413-1.345-5.174.056-7.068,1.66l-.017.015" transform="translate(-250.318 -66.809)" fill="#ffa42f"/>
        <path id="Trazado_39788" data-name="Trazado 39788" d="M547.023,171.54a3.321,3.321,0,0,1-4-4.372c.112-.3,2.856-7.414,12.1-11.379,6.7-2.875,9.754-9.455,10.117-12.015a3.314,3.314,0,1,1,6.563.932c-.651,4.586-5.046,13.3-14.066,17.174-6.518,2.8-8.435,7.442-8.513,7.639a3.28,3.28,0,0,1-2.2,2.021" transform="translate(-250.797 -65.112)" fill="#914817"/>
        <path id="Trazado_39789" data-name="Trazado 39789" d="M546.166,169.748c-.112-.811-.5-3.185.416-3.674.6-.322.741.947,1.288,1.265,1.2.7,2.165-.619,2.354-1.627.167-.888-.137-2.22.352-2.987,1.269-1.986,1.7-.094,2.848.139,1.573.318,1.788-1.4,2.057-2.487.544-2.2,1.625-1,2-.874a1.8,1.8,0,0,0,1.624-.15c.8-.53.679-1.306.98-2.1.847-2.228,4.055-.507,4.626-4.357.192-1.3-.159-.705.713-1.053.607-.243,1.1-.167,1.551-.759.412-.545.086-2.361.451-2.6a.869.869,0,0,0-.894-1.489,2.133,2.133,0,0,0-1.223,1.666c-.075.785.5.94-.263,1.5-.434.321-1.319-.311-1.911,1.677-.288.968-.309,1.77-1.285,2.243-.514.249-1.134.272-1.662.512-2.243,1.021-1.416,2.748-1.889,3.134-.54.441-.614,0-1.1-.1-1.518-.311-2.38.089-3,1.677-.153.393-.165.908-.354,1.282-.47.932-.864.426-1.569.313-.554-.089-.849-.336-1.434-.018-1.694.922-1.215,4.884-2.05,5.121-.677.193-1.054-1.157-1.632-1.365-1.868-.672-3.588,2.56-2.592,5.321.287.8,1.731.748,1.6-.22" transform="translate(-251.471 -67.867)" fill="#fee2bf"/>
        <path id="Trazado_39790" data-name="Trazado 39790" d="M569.657,153.192c-2.643,2.284-4.362,5.448-6.648,8.065a15.238,15.238,0,0,1-1.957,1.9c-3.02,2.407-8.03,4.294-9.708,7.343,0,0-3.249,4.85,4.256,8.16s26.835-14.544,24.2-24.025a5.3,5.3,0,0,0-2.189-3.318c-2.72-1.557-5.814.031-7.932,1.854l-.02.017" transform="translate(-254.414 -69.622)" fill="#fcc13f"/>
      </g>
    </g>
  </g>
</svg>
